<?xml version="1.0" encoding="utf-8"?>
<!-- Generator: Adobe Illustrator 22.0.1, SVG Export Plug-In . SVG Version: 6.00 Build 0)  -->
<svg version="1.1" id="Layer_1" xmlns="http://www.w3.org/2000/svg" xmlns:xlink="http://www.w3.org/1999/xlink" x="0px" y="0px"
	 viewBox="0 0 800 600" style="enable-background:new 0 0 800 600;" xml:space="preserve">
<style type="text/css">
	.st0{fill:#58754E;}
	.st1{fill:url(#SVGID_1_);}
	.st2{fill:url(#SVGID_2_);}
	.st3{fill:url(#SVGID_3_);}
	
		.st4{opacity:0.87;fill:none;stroke:#F2F2F2;stroke-width:7.4698;stroke-linecap:round;stroke-linejoin:round;enable-background:new    ;}
	.st5{fill:#F2F2F2;}
	.st6{fill:#3B2F2F;}
	.st7{fill:none;stroke:#F2F2F2;stroke-width:7.4698;stroke-linecap:round;stroke-linejoin:round;}
	.st8{fill:#F2F2F2;stroke:#D1CBBE;stroke-width:7.4698;stroke-miterlimit:10;}
</style>
<title>grow-your-code-v2</title>
<path class="st0" d="M358.7,490.4c0,0,52.5,10.6,59.2,0c0,0-32.5-11.1-44.9-16.4s-31.5-15.1-41-34.1c4.3,1.3,39.6,0,41-10.2
	c-24.3-11.1-79.7-73.5-63.9-70c15.7,3.5,26.8-0.9,24.8-4c-2-3.1-24.3-27.5-29.6-35.9s-1.4-5.4,17.2-12.4
	c-18.6-6.2-32.4-43.4-38.7-67.3c-5.2,15.9-21,49.2-44.9,69.5c10,9.3,17.7,4.9,21.4,4.4c3.8-0.4-9.5,41.9-36.7,53.5
	c14.8,12,25.3,2.3,25.3,2.3s-7.6,48.3-61.6,74.4c8.6,12.4,35.8-1.3,41-2.2c-16.2,34.6-27.7,50.1-53,58c6.2,5.4,32,3.5,42,0
	c-25.3,27.9-32,33.2-44.4,34.6c14.3,16.8,29.6,3.5,31.5,2.7c-2.4,12.9-42.5,27-42.5,27c8.1,7.5,22,5.4,39.6,2.2
	c17.7-3.1,88.8-18.6,88.8-18.6s90.7,23,116,21.4c-23.4-21-55.8-58.7-57.3-62.7c18.1,11.5,55.8,14.2,58.7,13.3
	C388.8,513.7,372.4,503.6,358.7,490.4z"/>
<path class="st0" d="M491.6,504c0,0-34.1,14-41.2,3c0,0,28.8-18.7,42-24.3c13.3-5.6,17.5-11.3,27.6-31.1c-4.6,1.3-42.3,0-43.8-10.6
	c26-11.5,94.8-75.1,78-71.5s-46.5,2-36.3-5.4c3.1-2.2,26-28.5,31.6-37.3c5.6-8.7,1.5-5.5-18.3-12.9c19.9-6.4,34.6-45.1,41.3-69.9
	c5.6,16.6,22.4,51.1,47.9,72.3c-10.7,9.7-18.8,5.1-22.9,4.6c-4.1-0.5,10.2,43.6,39.2,55.6c-13,10.3-9.4,12.7-36.8,3.2
	c4.6,8,67.6,72.8,75.5,76.5c-9.2,12.9-38.2-1.3-43.8-2.3c17.3,35.9,29.5,52,56.5,60.2c-6.6,5.5-34.1,3.7-44.8,0
	c27,29,34.1,34.5,47.4,35.9c-15.3,17.5-31.6,3.7-33.6,2.8c2.5,13.4,45.3,28.1,45.3,28.1c-8.7,7.8-23.4,5.5-42.3,2.3
	c-18.8-3.2-94.7-19.3-94.7-19.3s-96.8,23.9-123.8,22.3c25-21.8,59.6-61,61.1-65.1c-19.4,12-59.6,14.7-62.7,13.8
	C459.3,528.4,476.9,517.8,491.6,504z"/>
<path class="st0" d="M535.7,501c0,0,68,12.3,76.7,0c0,0-42-12.8-58.1-18.9s-40.8-17.4-53.2-39.4c5.6,1.5,51.3,0,53.2-11.8
	c-31.5-12.8-103.3-84.9-82.9-80.8s34.6-1,32.1-4.6c-2.5-3.6-31.5-31.7-38.3-41.4c-6.8-9.7-1.9-6.1,22.2-14.3
	c-24.1-7.2-42-50.1-50.1-77.7c-6.8,18.4-27.2,56.8-58.1,80.3c13,10.7,22.9,5.6,27.8,5.1c4.9-0.5-12.4,48.4-47.6,61.8
	c19.2,13.9,32.8,2.7,32.8,2.7s-9.9,55.7-79.8,85.9c11.1,14.3,46.4-1.5,53.2-2.6c-21,39.9-35.9,57.8-68.6,66.9c8,6.1,41.4,4.1,54.4,0
	c-32.8,32.2-41.4,38.4-57.6,39.9c18.6,19.4,38.3,4.1,40.8,3.1c-3.1,14.8-55,31.2-55,31.2c10.5,8.7,28.4,6.1,51.3,2.6
	c22.9-3.6,115-21.4,115-21.4s117.5,26.6,150.2,24.8C565.9,568,523.9,524.6,522,520c23.5,13.3,72.3,16.4,76.1,15.3
	C559.2,523,535.7,501,535.7,501z"/>
<linearGradient id="SVGID_1_" gradientUnits="userSpaceOnUse" x1="279.7413" y1="104.3244" x2="310.2631" y2="104.3244" gradientTransform="matrix(1 0 0 -1 0 602)">
	<stop  offset="0" style="stop-color:#3B2F2F"/>
	<stop  offset="1" style="stop-color:#000000"/>
</linearGradient>
<rect x="279.7" y="474.8" class="st1" width="30.5" height="45.8"/>
<linearGradient id="SVGID_2_" gradientUnits="userSpaceOnUse" x1="504.5451" y1="104.3244" x2="535.067" y2="104.3244" gradientTransform="matrix(1 0 0 -1 0 602)">
	<stop  offset="0" style="stop-color:#3B2F2F"/>
	<stop  offset="1" style="stop-color:#000000"/>
</linearGradient>
<rect x="504.5" y="474.8" class="st2" width="30.5" height="45.8"/>
<path class="st0" d="M352,181.9c0,0,25.4,4.4,28.6,0c0,0-15.7-4.5-21.7-6.7c-6-2.2-15.2-6.2-19.9-13.9c2.1,0.5,19.2,0,19.9-4.2
	c-11.8-4.5-38.6-30.1-31-28.6c7.6,1.4,12.9-0.4,12-1.6c-0.9-1.3-11.8-11.2-14.3-14.7c-2.5-3.5-0.7-2.2,8.3-5.1
	c-9-2.5-15.7-17.8-18.7-27.5c-2.5,6.5-10.2,20.1-21.7,28.4c4.8,3.8,8.5,2,10.4,1.8s-4.6,17.1-17.8,21.9c7.2,4.9,12.2,0.9,12.2,0.9
	s-3.7,19.7-29.8,30.4c4.2,5.1,17.3-0.5,19.9-0.9c-7.9,14.1-13.4,20.5-25.6,23.7c3,2.2,15.5,1.4,20.3,0
	c-12.2,11.4-15.5,13.6-21.4,14.1c6.9,6.9,14.3,1.4,15.2,1.1c-1.2,5.3-20.6,11-20.6,11c3.9,3.1,10.6,2.2,19.2,0.9
	c8.5-1.3,43-7.6,43-7.6s43.9,9.4,56.1,8.8c-11.3-8.6-27-24-27.7-25.6c8.8,4.7,27,5.8,28.4,5.4C366.9,191.6,359,187.5,352,181.9z"/>
<path class="st0" d="M521.7,161.8c0,0-20.4,8.4-24.7,1.8c0,0,17.3-11.3,25.2-14.6c7.9-3.3,10.5-6.8,16.6-18.7
	c-2.7,0.8-25.3,0-26.3-6.3c15.6-6.9,56.9-45,46.8-42.8c-10.1,2.2-27.9,1.2-21.7-3.2c1.8-1.3,15.6-17.1,18.9-22.3s0.9-3.3-11-7.7
	c11.9-3.9,20.8-27,24.7-41.9c3.4,9.9,13.4,30.6,28.7,43.3c-6.4,5.8-11.3,3-13.7,2.8s6.1,26.1,23.5,33.3c-7.8,6.1-5.6,7.6-22.1,1.9
	c2.8,4.8,40.5,43.6,45.3,45.9c-5.5,7.7-22.9-0.8-26.3-1.3c10.4,21.5,17.7,31.2,33.9,36.1c-4,3.3-20.5,2.2-26.9,0
	c16.2,17.4,20.5,20.7,28.4,21.5c-9.2,10.5-18.9,2.2-20.2,1.7c1.5,8,27.2,16.8,27.2,16.8c-5.2,4.7-14,3.3-25.3,1.3
	c-11.3-2-56.8-11.6-56.8-11.6s-58,14.3-74.2,13.4c15-13.1,35.7-36.5,36.6-39c-11.6,7.1-35.7,8.8-37.6,8.2
	C502.3,176.4,512.8,170.1,521.7,161.8z"/>
<path class="st0" d="M476,160.6c0,0,24.9,5.4,28.1,0c0,0-15.4-5.7-21.3-8.4c-5.9-2.7-14.9-7.7-19.5-17.4c2,0.7,18.7,0,19.5-5.2
	C471.3,124,445,92,452.5,93.8s12.7-0.5,11.8-2c-0.9-1.6-11.5-14-14-18.3c-2.5-4.3-0.7-2.7,8.2-6.3C449.5,64,443,44.9,440,32.7
	c-2.5,8.2-10,25.1-21.3,35.5c4.8,4.8,8.4,2.5,10.2,2.3c1.8-0.2-4.5,21.4-17.4,27.3c7,6.1,12,1.2,12,1.2c-3.5,16.4-14.2,30.4-29.2,38
	c4,6.3,17-0.7,19.5-1.1c-7.7,17.7-13.1,25.6-25.1,29.7c2.9,2.7,15.2,1.8,19.9,0c-12,14.3-15.2,17-21.1,17.7c6.8,8.6,14,1.8,14.9,1.3
	c-1.1,6.6-20.1,13.8-20.1,13.8c3.8,3.9,10.4,2.7,18.7,1.1c8.3-1.5,42.1-9.5,42.1-9.5s43,11.8,55,11c-11.1-10.7-26.5-30-27.2-32
	c8.6,5.9,26.5,7.2,27.8,6.8C490.2,172.4,482.4,167.3,476,160.6z"/>
<linearGradient id="SVGID_3_" gradientUnits="userSpaceOnUse" x1="488.8487" y1="507.0552" x2="253.6676" y2="99.7123" gradientTransform="matrix(1 0 0 -1 0 602)">
	<stop  offset="0" style="stop-color:#3B2F2F"/>
	<stop  offset="1" style="stop-color:#000000"/>
</linearGradient>
<path class="st3" d="M173.7,92.2l452.5,88.4c66.3,11.8,51.8,69.2,51.8,69.2l-26.5,185.7c-5.9,39.8-37.6,51.6-50,51.6H258.2
	c-19,0-59.8-5.9-66.9-29.5l-77.4-309.4C100.5,92.2,143.2,86.2,173.7,92.2z"/>
<path class="st4" d="M188.1,110.8l423,82.6c62,11,48.4,64.7,48.4,64.7l-24.7,164.2c-5.6,37.2-26.3,47.6-46.7,47.6h-321
	c0,0-53.4,3.3-62.5-27l-72.5-280.2C119.7,110.5,136.1,101.2,188.1,110.8z"/>
<path class="st5" d="M606.8,421c-0.6-1.2-0.4-2.2-1.6-3.1c-0.8-0.6-1.8-1-2.8-1c-2.4,0-4.9-0.4-7.2-1.1c-2.1-0.8-5.8-1.9-7.3-3.8
	c-1.4-1.9-0.1-3.8,1.2-5.4c0.7-0.8,1.6-1.4,2.1-2.1c0.3-0.3,0.5-0.9,0.9-1.3c0.4-0.4,1.6-0.6,2-1c0.4-0.4,1.3-2.4,1.8-3.3
	c0.9-1,1.5-2.1,1.9-3.3c0.2-0.6,0.3-1.1,0.3-1.7c0.1-0.7-0.9-0.9,0.1-1.3c-0.2-0.6,0.1-1.6,0-2.4c-0.1-1.6-0.1-3.2-0.4-4.8
	c-0.5-3.2-1.3-7.9-4.4-9.5c-3.5-1.9-8.1-2-12-1.9c-3.2,0.1-6,1.7-8.5,3.8c-1.8,1.8-3.2,4-4,6.5c-1.1,3.3-0.5,7.5-0.2,10.8
	c0.1,1.6,0.4,3.3,0.6,4.9c0,2.1,0.2,4.3,0.4,6.4c0.6,3.1,2.5,4.5-0.2,7.1c-2.4,2.3-4.8,4.6-7.8,2.1c-2.4-2-3.1-4.8-3.9-7.6
	c-2.1-7.5-0.9-15.8,0.1-23.5c1.1-7.9,2-15.8,2.5-23.8c0.2-3.9,1.5-7.5,1.9-11.3c0.3-3.1-2-4.1-4.7-5.2c-3.3-1.3-6.9-1.1-8,3
	c-0.3,1,0.3,2.1,0.1,3.1c-0.2,0.7-0.7,1.1-0.9,1.8c-0.5,1.7-0.1,3.9-0.3,5.8s-0.6,3.8-0.7,5.7c-0.2,1.7-0.5,3.5-0.9,5.2
	c-0.3,2-0.6,4-1,6c-0.1,1.4-0.4,2.8-0.9,4.2c-0.9,1.7-2.6,1.2-4.2,1.6c-1.6,0.4-2.6,0.8-4,1.2c-3.2,0.9-5.6,2.7-8.7,3.7
	c-1.4,0.5-2.8,0.8-4.2,1.3c-1.7,0.6-3.4,1.8-5,2.2c-1.2,0.3-2.2-0.3-3.4-0.2c-2.1,0.1-3.6,0.9-5.2-0.9c-2.1-2.3-3.5-4.8-6.7-5.8
	c-1.5-0.7-3.2-0.5-4.6,0.5c-0.6,0.5-0.9,1.3-1.6,1.8s-1.4,0.6-1.9,1.3c-0.6,1.3-0.7,2.8-0.3,4.2c0.5,1.6,0.9,3.5,1.5,5.2
	c0.7,1.9,2.5,2,3.8,3.6c1.3,1.5,0.5,3.3,0,5c-1.1,3.5-2.4,7.6-6.4,8.2c-3.5,0.6-6-1.1-8-3.9c-2.5-3.4-1.9-7.2,0.3-10.7
	c1-1.6,3.3-3.5,3.4-5.5c0.1-2-2.1-3-4-2.4c-1.6,0.5-3,2-4.3,2.7c-1.4,0.7-1.7,0.3-3.1-0.2c-3.2-1.1-7.6,1-9.9,3.4
	c-2.1,2.1-4.3,4.8-6.6,6.9c-2.5,2.3-5.2,4.9-7.9,6.9c-2.6,2.2-5.8,3.5-9.3,3.7c-1.9,0.2-3.9-0.3-5.5-1.3c-0.3-0.1-0.3-0.4-0.6-0.5
	c-0.7-0.3-1.6-0.1-2.4-0.4c-3.2-1.3-5-5.1-5.9-8.3c-1.1-4.4-1.2-9-0.3-13.4c0.4-1.9,0.9-3.8,1.7-5.5c0.3-1.1,0.5-2.2,0.6-3.4
	c0.9-3.1,2.4-6.1,3.3-9.2c0.8-2.6,1.7-5.1,2.9-7.6c1.3-2.5,2.8-4.8,4.4-7.1c1.6-2.7,5.1-7.4,7.7-3.1c0.7,1.2,0.8,1.8,2.6,2.2
	c1.8,0.2,3.6-0.4,5-1.6c2-2-2.4-6.2-4-7.7c-2.5-2.3-5.6-1.8-8.4-0.5c-2.4,1.2-5.4,2.5-7.2,4.6c-2.4,2.7-5.2,5.2-7.1,8.2
	c-3.6,5.8-6.3,12.1-8.1,18.6c-1,3.5-2.5,7.1-3.7,10.6c-0.5,1.3-0.8,2.6-1,4c-0.2,1.6-0.9,3-1.1,4.5c-0.6,6.4,1.2,12.7,5.2,17.7
	c1.1,1.3,1.3,2.2,3.1,2.9c1.2,0.3,2.3,1,3,2c0.4,0.5,0.4,1.2,0.9,1.6c0,0,2,1.3,1.9,1.3c0.4,0,0.9-0.5,1.1-0.5
	c0.1,0,0.7,0.5,1.2,0.6c2.9,1,6,0.6,9,0.7c3,0.1,6-0.3,8.8-1.3c2.4-1,4.6-2.5,6.3-4.6c0.9-0.9,1.8-1.8,2.7-2.7
	c0.2-0.2,0.1-0.7,0.3-0.9c0.5-0.4,1.3-0.5,1.8-0.9c3.3-2.3,4.9-6.3,7.7-9c1.4-1.4,3.4-1.7,3.8,0.8c0.2,1.6-0.1,3.4,0.1,5.1
	c0,1.4,0.3,2.8,0.9,4c0.2,0.3,0.5,0.5,0.6,0.8c0.4,0.9,0.8,1.9,1.1,2.9c1.1,2.4,4.2,3.7,6.4,4.4c1.6,0.6,3.3,0.8,5.1,0.8
	c1.7,0.2,3.3,0.3,5,0.2c1.5-0.3,2.7-1.3,4.4-1.6c1,0,2-0.5,2.7-1.3c2.5-2,4.8-4.3,6.9-6.8c1.6-2.3,2.5-4.9,2.9-7.7
	c0.2-1.6-0.1-3.6,1.2-4.8c1.1-1,2.7-1.1,3.9-1.6c1.3-0.5,2.7-2,4-0.3s-0.1,3.6-0.9,5.1c-3.1,5.9,1.2,13.1,5.3,17.4
	c1,1.1,2.2,2.1,3.5,2.9c1,0.6,2.1,1,3.3,1.3c2.2,0.9,3.9,0.5,6.4-0.3c0.9-0.3,2-0.2,2.7-1c0.4-0.4,0.5-1.3,1-1.9
	c0.6-0.8,1.3-1.6,2-2.3c2.8-2.7,5.4,2,7.5,3.5c2.1,1.6,4.6,3.4,7.5,3.4c2.4,0,4.9-0.2,7.3-0.7c1.4-0.2,2.7-0.6,4-1
	c0.5-0.1,0.9-0.3,1.3-0.5c0.1-0.1,0.3-0.6,0.5-0.7c1.1-0.7,1.6-0.6,2.5-1.5c0.8-0.9,1.7-1.7,2.7-2.4c1.6,2.7,4.3,3,7,4.3
	c1,0.7,2.2,1.3,3.3,1.8c1,0.3,2,0,3.1,0.4c0.9,0.4,1.8,0.7,2.7,1c1.3,0.1,2.7,0,4.1,0.1c0.9,0.1,1.8,0,2.7,0
	c1.1,0.3,2.2,0.4,3.3,0.3c1.4-0.3,2-1.5,3.1-2.3c0-0.5,0.1-1,0.3-1.5c0.1-0.2,0.3-0.2,0.4-0.3C606.4,422.5,606.6,421.5,606.8,421
	C606.6,420.5,606.5,421.7,606.8,421z M541.3,395.4c-0.7,1-1.1,3.2-1.7,4.4c-0.8,1.8-1.5,3.6-2.1,5.5c-1,2.8-2.2,5.6-3.7,8.2
	c-2,3.6-4,0.6-5.6-1.6c-1.2-1.6-1.8-2.4-0.8-4.3c0.2-0.3,0.8-0.4,1-0.7c0.2-0.3-0.2-0.5,0-0.9c0.2-0.4,0.6-0.7,0.7-1
	c0.2-0.6-0.1-1,0-1.5s0.7-0.4,0.8-0.7c0.1-0.5,0.2-1,0.2-1.4c0.8-3.3,2.2-6.3,4.3-9c0.6-0.9,0.2-0.8,1.1-1.5c1-0.5,2-0.9,3.1-1.2
	C543,387.9,543.3,392.3,541.3,395.4C541.2,395.6,541.9,394.5,541.3,395.4L541.3,395.4z M586.5,397.1c-4,3.3-4.9-1.3-5.1-4.7
	c-0.2-3-1.3-9.5,1.6-11.6c1.5-0.7,3.3-0.8,4.8-0.1c1.1,1.4,1.9,3,2.3,4.7c0.6,2-0.6,3.4-1.1,5.2
	C588.5,392.9,588.9,395.5,586.5,397.1L586.5,397.1z"/>
<path class="st6" d="M436.4,409.5c0,0.4,0.2,0.4,0.5,0C436.7,409.5,436.6,409.5,436.4,409.5z"/>
<path class="st5" d="M402.1,405.6c-0.6-0.9-4,1.1-5.1,1.7c-3.4,1.8-7.1,3.2-10,6c-1,0.9-1.8,1.8-2.9,2.6c-0.6,0.6-1.4,0.9-2.2,0.9
	c-0.8,0-1.5-0.3-2-0.8c-0.9-0.8-0.6-1-0.7-2.1c-0.3-1.6-0.3-3.3,0-5c0.3-1.5,0.8-2.9,1.3-4.2c1.3-3.2,3.4-6,5-9.2
	c1.3-2.7,0.1-5.9-3.3-6c-0.9,0-1.9,0.3-2.8,0.4c-0.3,0-0.6-0.2-0.9-0.1c-2,0.4-3.9,1.1-5.6,2.2c-1.6,1-3.1,2.7-4.9,3.4
	c-0.9,0.3-1.9,0.4-2.9,0.2c-1.3-0.1-2.4,0.3-3.7,0.3c-1.4,0-2-0.3-2.1-1.3c-0.2-1.6,0.8-1.5,1.9-1.7c-2.2-6.7-11.6-8.4-15.4-2.3
	c-2.1,3.4-2.5,8.5,1.1,11.2c1.8,1.3,3.6,1.9,2.9,4.5c-0.6,2.3-2.7,2.7-4.3,4c-3.2,2.7-5.4,4.2-9.9,2.7c-2.4-0.8-3-1.4-3.2-4
	c-0.2-2.1-0.2-4.3-0.1-6.5c0-0.9,0.6-1.9,0.5-2.8c0-1.3-0.9-2.7-1-4c-0.2-1.6,0.6-2.7,0.8-4.3c0.2-1.5-0.5-2.1-0.5-3.4
	c0-1.8,2-3.6,0.6-5.4c-0.5-0.7-1.8-0.5-2.1-1c-0.3-0.4-4,0.4-4.6,1.9c-0.7,1.7-2,2.6-2.9,4.3c-0.9,2.1-1.4,4.4-1.5,6.7
	c0.1,1,0.1,2.1,0,3.1c-0.1,1-0.2,2-0.3,2.9c-0.1,1.4,0,2.8,0.2,4.2c0.2,3.5,0.5,9.3-4,10.1c-2.7,0.3-5.2-1.1-6.4-3.5
	c-1.6-3-1-6.3-0.6-9.5c0.2-1.8,0.9-3.9,0.9-5.7c0-1.3-0.4-2.8-0.3-4.2c0.2-1.6,0.7-3,1.5-4.4c0.9-1.2,2.5-1.7,0.9-3.3
	c-2.4-2.5-5.6,0-7.3,2c-2,2.4-4.4,4.5-7,6.3c-2.3,1.6-4,2-5.4-0.7c-1.3-2.7-3.4-5.1-6.6-5.4c-1.6-0.1-3.2,0.3-4.6,1
	c-1.1,0.6-1.8,2-3,2.3c-1.3,0.4-3.5-0.3-4.9-0.4c-1.1-0.1-2.2-0.1-3.3,0c-2.7,0.7-5,2.5-6.5,4.8c-1.2,1.5-2.3,3.1-3.3,4.8
	c-0.5,0.8-1.2,1.7-1.6,2.6c-0.4,1.2-0.6,2.4-0.7,3.7c-0.2,0.5-0.3,1.1-0.5,1.6c0,0.3,0.5,0.3,0.4,0.8c-0.1,1.2-0.9,2.3-1,3.5
	c-0.3,4.2,3.1,7.1,6,9.5c2.5,1.9,5.5,3,8.7,3.1c3,0.2,6.4,1.6,9.3-0.1c2.5-1.7,4.8-3.7,6.8-5.9c3.1-2.9,3.5-6.5,4.6-10.4
	c0.7-2.6,0.4-4.9,3.1-6c1.2-0.5,2.7-1.2,3.7,0.1c1.1,1.2-0.3,4.3-0.3,5.9c-0.1,6.5,0.3,13.1,7.1,15.8c3.1,1.4,6.5,2,9.9,1.5
	c1.4-0.4,2.7-0.9,4-1.5c1.3-0.6,3.1-2.3,4.7-2.3c1.5,0,2.4,1.2,3.7,1.7c1.6,0.6,3.3,0.8,4.8,1.2c3.3,0.9,7-0.5,9.7-2.4
	c2.6-1.7,4.9-3.9,6.7-6.4c1.1-1.5,2.5-2.9,4-4c0.8-0.6,1.6-1.2,2.3-1.9c0.7-0.8,0.8-1.7,1.5-2.5c1.1-1.4,3-1.3,4.7-1.4
	c1.2-0.2,2.4-0.3,3.5-0.4c1.3,0.1,1.5,0.7,1.6,1.6c0,0.5-0.1,0.9-0.2,1.3c-0.3,1.1-0.6,2.2-0.8,3.3c-0.3,1.8-1.3,3.6-1.3,5.4
	c0.1,0.8,0.3,1.6,0.5,2.4c0.1,0.9-0.2,1.8,0,2.7c0.6,3.6,4,5.3,7.2,5.9c1.6,0.2,3.3,0.2,5,0.1c1.9-0.3,3.7-0.9,5.4-1.8
	c2.9-1.3,5.4-3.3,7.4-5.8c1.6-2,3.2-4,4.7-5.9c1.2-1.6,3.1-2.7,4.3-4.3c0.5-0.6,0.6-0.9,1-1.6C402.7,406.9,403.1,407,402.1,405.6
	C401.9,405.3,402.3,405.9,402.1,405.6z M284.5,408.2c-0.7,2.7-0.9,5.2-3.9,6.1c-1.8,0.6-6,1.3-7.8,0.4c-1-0.5-1.8-1.3-2.8-1.9
	c-0.9-0.4-1.6-1.1-2.1-2c-1.4-2.2-1.6-4.9-0.5-7.3c0.8-2.3,1.9-4.4,3.3-6.4c1.8-2.5,4.3-1.7,5.4,1c1.1,2.7,1.8,3.7,4.7,4.8
	S285.5,404.8,284.5,408.2L284.5,408.2z"/>
<path class="st5" d="M265.1,341.8c-0.8,1.6-2.3,2.4-3.2,3.7c-0.5,0.8-0.9,1.7-1.1,2.6c-0.2,1.2-0.2,2.3,0,3.5
	c-0.3,1.6-0.9,3.1-1.8,4.4c-0.8,1.8-1.5,3.6-2,5.5c-2.5,7.3-3.3,15-5.2,22.4c-0.8,3.3-0.9,6.5-2.1,9.6c-1.4,3.7-1.8,7.7-3.2,11.4
	c-0.7,1.6-1.6,3.2-2.5,4.7c-1,1.8-1.7,3.7-2.7,5.5c-1.7,2.9-2.8,6.8-5.4,9.1c-0.9,0.7-1.9,1.2-2.9,1.5c-0.8,0.2-1.7,0.4-2.6,0.5
	c-0.3,0-0.7-0.3-1-0.2s-1.2,0.5-1.5,0.5c-1.2-0.1-2.2-0.7-2.8-1.7c-1-1.6,0.2-3.4,0.7-4.9c1.2-3.5,2.4-7,3.6-10.5
	c1.2-3.5,2.8-6.8,3.7-10.4c0.9-3.6,2.3-7.4,3.2-11.1c0.4-1.7,1.1-3.6-0.5-4.8s-3.5-1-5.1-2.1c-2.8-2.1-5.1-5.6-7.3-8.3
	c-1.2-1.5-2.2-3.1-3.4-4.5c-1.5-1.7-3.2-3.1-4.6-4.9s-2.9-3.4-1.2-5.8c0.7-1.1,1.3-0.9,2.4-1.2c1.3-0.5,2.6-0.9,4-1.2
	c1.7,0.1,3.2,0.7,4.5,1.8c1.4,1.3,2.8,2.8,4.3,4.1c1.4,1.3,3.4,2.5,4.7,4.3c1.8,2.5,3.9,4.8,6.2,6.9c1.7-4.3,2.6-8.8,4-13.3
	c1-2.7,1.7-5.4,2-8.3c0-1.4,0.1-2.8,0.5-4.2c1.3-4,3.8-7.3,8.2-8.1c1.8-0.5,3.5-0.8,5.4-1.1C262.2,337.5,266.5,339,265.1,341.8
	C264.8,342.4,265.6,340.8,265.1,341.8z"/>
<path d="M685.7,375.9c-0.1,0-0.2-0.1-0.1-0.2c0-0.1,0.1-0.3,0.2-0.3c0.2,0,0.1,0.1,0.1,0.2S685.9,375.8,685.7,375.9z"/>
<path class="st5" d="M268.2,290v-60.2c0-11.8,11.8-21.3,25.2-21.3c12.4,0,22.8,9.5,22.8,21.3v14.6H308v-14.6
	c0-6.9-6.9-13.1-14.6-13.1c-8.9,0-16.9,6.2-16.9,13.1V290c0,7.3,8.3,12.5,16.9,12.5c7.4,0,14.6-5.2,14.6-12.5v-26.5h-12.6v-6.8h20.8
	V290c0,11.6-10.9,20.4-22.8,20.4C280.3,310.4,268.3,301.6,268.2,290z"/>
<path class="st5" d="M349.5,309.5h-8.2l-0.1-101h21.5c11.9,0,21.6,9.6,21.6,21.5v15.1c0,5.6-3.6,11.1-8.9,15.1
	c6.2,4,9.8,10.3,9.8,16.3v33h-8.3v-33c0-6.7-6.4-12.5-13.6-12.5h-13.9V309.5z M349.5,216.7v40.5h13.7c6.8,0.2,12.5-5.2,12.7-12V230
	c0-7.6-4.2-13.4-9.5-13.4L349.5,216.7z"/>
<path class="st5" d="M459,289.9c0,11.6-11.6,20.4-24.9,20.4c-13,0-24.7-8.8-24.9-20.4v-61c0-11.6,11.9-20.4,24.9-20.4
	c13.2,0,24.9,8.8,24.9,20.4V289.9z M450.8,289.9v-61c0-7.3-7.9-12.5-16.7-12.5c-8.8,0-16.7,5.2-16.7,12.5v61c0,7.3,8,12.5,16.7,12.5
	C442.8,302.4,450.8,297.2,450.8,289.9L450.8,289.9z"/>
<path class="st5" d="M504.9,309.5h-9l-15-101h8.4L501,283l13-74.5h7.8l13,74.5l11.8-74.5h8.4l-15,101h-9L517.9,235L504.9,309.5z"/>
<polyline class="st7" points="240.1,234.4 205.7,260.2 240.1,286 "/>
<polyline class="st7" points="580.2,286 614.6,260.2 580.2,234.4 "/>
<path class="st8" d="M228,519.3h358.4c4.2,0,7.7,3.4,7.7,7.7v29.7l0,0H220.3l0,0v-29.7C220.3,522.7,223.8,519.3,228,519.3z"/>
<path class="st8" d="M182.2,556.6h449.9c4.7,0,8.6,3.8,8.6,8.6V594l0,0H173.6l0,0v-28.8C173.6,560.5,177.5,556.6,182.2,556.6
	C182.2,556.6,182.2,556.6,182.2,556.6z"/>
</svg>
