<svg xmlns="http://www.w3.org/2000/svg" viewBox="0 0 264.99 507.44"><defs><style>.cls-1,.cls-2,.cls-3{fill:none;stroke:#333;stroke-miterlimit:10;}.cls-1{stroke-linecap:square;}.cls-1,.cls-3{stroke-width:32px;}.cls-2{stroke-width:13.24px;}.cls-4{fill:#373838;}</style></defs><title>icon-5-peaks</title><g id="Layer_2" data-name="Layer 2"><g id="Layer_1-2" data-name="Layer 1"><path class="cls-1" d="M217.83,70.51H47.16v106.1H89.45l43.05-43.05,43,43.05h42.27"/><polygon class="cls-2" points="216.97 285.35 132.51 324.62 132.48 324.62 48.02 285.28 132.46 200.84 216.97 285.35"/><polygon class="cls-2" points="48 231.57 74.86 258.43 48.03 285.26 11.37 268.2 29 250.57 48 231.57"/><polygon class="cls-2" points="253.62 268.28 216.99 285.32 216.89 285.28 190.1 258.48 197.95 250.63 203.53 245.05 216.96 231.62 253.62 268.28"/><rect class="cls-2" x="63.16" y="229.99" width="23.65" height="23.65" transform="translate(-149.02 123.85) rotate(-45)"/><polygon class="cls-2" points="206.8 241.81 199.86 248.76 190.08 258.54 173.35 241.81 190.08 225.09 206.8 241.81"/><path class="cls-3" d="M217,285.35v22l-84.49,39.28L48,307.32v-22"/><line class="cls-1" x1="217.83" y1="187.34" x2="217.83" y2="176.61"/><path class="cls-4" d="M47.42,24.13v5.12H37.23V43.61H32.1V0H48.86V5.12H37.23v19Z"/><path class="cls-4" d="M56.92,43.61H51.8V0h5.12Z"/><path class="cls-4" d="M66.37,0l6.14,32.35L78.49,0h5.23L75.87,43.61H69.15L61.14,0Z"/><path class="cls-4" d="M104.9,0V5.12H93.27V15.58h10.19v5.13H93.27V38.48H104.9v5.13H88.14V0Z"/><path class="cls-4" d="M139,20.07a9.24,9.24,0,0,1-9.28,9.23h-4.11V43.61h-5.18V0h9.29A9.32,9.32,0,0,1,139,9.29ZM125.56,5.12V24.18h4.11a4.15,4.15,0,0,0,4.11-4.11V9.29a4.19,4.19,0,0,0-4.11-4.17Z"/><path class="cls-4" d="M159.71,0V5.12H148.08V15.58h10.19v5.13H148.08V38.48h11.63v5.13H143V0Z"/><path class="cls-4" d="M179.19,43.61l-1.44-6.51h-7.31l-1.33,6.51h-6.3L171.62,0h4.75l9.12,43.61Zm-1.92-11.69L174,14.52c-1,5.55-1.92,10.89-3.1,17.4Z"/><path class="cls-4" d="M194.56,43.61h-5.12V0h5.12V14.73c3.58-4.86,7.32-10,10.89-14.73h6.41L199.31,16.92l11.48,26.69h-5.5l-9.6-21.89-1.13,1.61Z"/><path class="cls-4" d="M219.27,15.69c0,2.24,2.19,3.63,4.76,3.79,4.91.38,9.66,3.69,9.66,8.81v6.24a9.81,9.81,0,0,1-19.59,0V30.32h5.12v4.21a4.52,4.52,0,0,0,4.7,4.17,4.41,4.41,0,0,0,4.59-4.17V28.29c0-2.24-2.19-3.79-4.7-3.79-5.18,0-9.71-3.74-9.71-8.81V9.29a9.81,9.81,0,0,1,19.59,0v4.37h-5.13V9.29a4.67,4.67,0,0,0-9.29,0Z"/><path class="cls-4" d="M21.85,377.58H35.09a13.17,13.17,0,0,1,13.18,13.1v7.37A12.89,12.89,0,0,1,44.62,407a14.34,14.34,0,0,1,5.72,11.46v3.43A14.13,14.13,0,0,1,36.1,436.07H21.85Zm6.87,6.87v19.83h6.37a6.32,6.32,0,0,0,6.23-6.23v-7.37a6.32,6.32,0,0,0-6.23-6.23Zm0,26.71v18H36.1a7.34,7.34,0,0,0,7.3-7.31v-3.43a7.33,7.33,0,0,0-7.3-7.3Z"/><path class="cls-4" d="M63.66,436.07H56.71V377.58H69.17A12.53,12.53,0,0,1,81.7,390V404.5A12.92,12.92,0,0,1,78,413.23a12.77,12.77,0,0,1,4.22,9.45v13.39H75.26V422.68a5.86,5.86,0,0,0-5.73-5.8H63.66Zm0-51.62V410h5.8a5.41,5.41,0,0,0,5.22-5.51V390a5.53,5.53,0,0,0-5.51-5.59Z"/><path class="cls-4" d="M112.41,377.58v6.87H96.81v14h13.67v6.88H96.81V429.2h15.6v6.87H89.93V377.58Z"/><path class="cls-4" d="M133.46,436.07h-7.37l-8.67-58.49h7L129.81,413l5.37-35.37h7.37L147.92,413l5.37-35.37h7l-8.66,58.49h-7.38l-5.44-35.44Z"/><path class="cls-4" d="M173.34,436.07h-6.88V377.58h6.88Z"/><path class="cls-4" d="M187.66,436.07h-6.88V377.58h7.45L200.83,415V377.58h6.87v58.49h-6.37l-13.67-38.52Z"/><path class="cls-4" d="M215.08,424.76V389.89c0-6.8,6.8-12.31,14.6-12.31,7.16,0,13.17,5.51,13.17,12.31v8.45H236v-8.45c0-2.93-2.93-5.44-6.3-5.44-4.08,0-7.66,2.51-7.66,5.44v34.87c0,2.93,3.72,5.08,7.66,5.08,3.22,0,6.3-2.15,6.3-5.08V416.6h-7.3v-6.81h14.17v15c0,6.73-6.29,11.81-13.17,11.81C222.09,436.57,215.08,431.49,215.08,424.76Z"/><path class="cls-4" d="M20.92,495.63V463.31c0-6.52,6.45-11.81,13.85-11.81,6.92,0,12.49,5.29,12.49,11.81V467H40.67v-3.67c0-2.85-2.71-5.29-5.9-5.29-3.87,0-7.27,2.44-7.27,5.29v32.32c0,2.85,3.4,5.29,7.27,5.29,3.19,0,5.9-2.44,5.9-5.29v-3.94h6.59v3.94c0,6.51-5.57,11.81-12.49,11.81C27.37,507.44,20.92,502.14,20.92,495.63Z"/><path class="cls-4" d="M80.45,496.17c0,6.38-6.38,11.2-13.64,11.2s-13.65-4.82-13.65-11.2V462.7c0-6.38,6.52-11.2,13.65-11.2s13.64,4.82,13.64,11.2Zm-6.51,0V462.7c0-2.78-3.33-4.82-7.13-4.82s-7.13,2-7.13,4.82v33.47c0,2.78,3.4,4.82,7.13,4.82S73.94,499,73.94,496.17Z"/><path class="cls-4" d="M107.48,507h-5.84l-8.08-30.48V507H87V451.5H94.1l10.46,42,10.52-42h6.24V507h-6.58V476.75Z"/><path class="cls-4" d="M152.28,477a11.76,11.76,0,0,1-11.81,11.74h-5.23V507h-6.58V451.5h11.81a11.86,11.86,0,0,1,11.81,11.81Zm-17-19v24.23h5.23A5.27,5.27,0,0,0,145.7,477V463.31a5.33,5.33,0,0,0-5.23-5.29Z"/><path class="cls-4" d="M171,507l-1.83-8.28h-9.3l-1.7,8.28h-8l11.2-55.46h6L179,507Zm-2.44-14.86L164.43,470c-1.29,7.07-2.44,13.85-3.93,22.14Z"/><path class="cls-4" d="M190.64,507h-6.52V451.5h7.06l11.95,35.44V451.5h6.52V507h-6l-13-36.52Z"/><path class="cls-4" d="M227.1,507V480.22c-3.87-8.9-8.76-19.89-12.63-28.72h7.13l8.75,19.89c2.86-6.58,6.05-13.64,8.76-19.89h7.13l-12.63,28.72V507Z"/></g></g></svg>