<?xml version="1.0" encoding="utf-8"?>
<!-- Generator: Adobe Illustrator 22.0.1, SVG Export Plug-In . SVG Version: 6.00 Build 0)  -->
<svg version="1.1" id="Layer_1" xmlns="http://www.w3.org/2000/svg" xmlns:xlink="http://www.w3.org/1999/xlink" x="0px" y="0px"
	 viewBox="0 0 429 180" style="enable-background:new 0 0 429 180;" xml:space="preserve">
<style type="text/css">
	.st0{fill:#373838;}
	.st1{fill:#939393;}
</style>
<title>icon-travelight-logo</title>
<g id="Layer_2_1_">
	<g id="Layer_2-2">
		<path class="st0" d="M46.2,112.5h-5.3v-40h-7.2v-5.3h19.6v5.3h-7.1V112.5z"/>
		<path class="st0" d="M79.6,112.5h-5.4V67.2h9.7c5.3,0,9.7,4.3,9.7,9.7v6.8c-0.1,2.5-1.1,5-2.9,6.8c2.1,1.9,3.3,4.5,3.3,7.3v14.8
			h-5.4V97.7c0-2.4-2-4.4-4.4-4.5h-4.5V112.5z M79.6,72.5v15.4h4.5c2.3-0.1,4.1-2,4.1-4.3v-6.8c0-2.4-1.9-4.3-4.2-4.3c0,0,0,0,0,0
			L79.6,72.5z"/>
		<path class="st0" d="M131.3,112.4l-2.6-11.2h-7.5l-2.5,11.2h-5.5l9.2-45.3h4.9l9.5,45.3H131.3z M127.6,95.9l-2.8-13.7
			c-0.9,4.4-1.7,8.7-2.7,13.7H127.6z"/>
		<polygon class="st1" points="128.7,101.2 121.2,101.2 122.2,95.9 127.7,95.9 		"/>
		<path class="st0" d="M157.3,67.2l6.4,33.6l6.2-33.6h5.4l-8.2,45.3h-7l-8.3-45.3L157.3,67.2z"/>
		<path class="st0" d="M212.4,67.2v5.3h-12.1v15.3h10.6v5.3h-10.6v14h12.1v5.3h-17.4V67.2H212.4z"/>
		<path class="st1" d="M271.9,112.5h-5.3V67.2h5.3V112.5z"/>
		<path class="st1" d="M293.2,103.7v-27c0-5.3,5.3-9.5,11.3-9.5c5.5,0,10.2,4.3,10.2,9.5v6.6h-5.3v-6.6c0-2.3-2.3-4.2-4.9-4.2
			c-3.2,0-5.9,1.9-5.9,4.2v27c0,2.3,2.9,3.9,5.9,3.9c2.5,0,4.9-1.7,4.9-3.9V92.9h-5.7v-5.3h11v16c0,5.2-4.9,9.2-10.2,9.2
			C298.7,112.9,293.2,108.9,293.2,103.7z"/>
		<path class="st1" d="M355.3,112.5h-5.4V93.1h-8.8v19.4h-5.4V67.2h5.4v20.6h8.8V67.2h5.4L355.3,112.5z"/>
		<path class="st1" d="M247,112.5h-14.8V67.2h5.3v40h9.5V112.5z"/>
		<polygon class="st0" points="237.8,89.8 232,112.5 232,67.2 237.8,67.2 		"/>
		<path class="st1" d="M388.2,112.5h-5.3v-40h-7.2v-5.3h19.6v5.3h-7.1L388.2,112.5z"/>
		<polygon class="st0" points="382.8,92.8 388.2,72.7 388.2,112.9 382.8,112.9 		"/>
	</g>
</g>
</svg>
