<svg xmlns="http://www.w3.org/2000/svg" viewBox="0 0 230.1 25.42"><defs><style>.cls-1{isolation:isolate;}.cls-2{fill:none;stroke:#331141;}.cls-2,.cls-3,.cls-5{stroke-miterlimit:10;}.cls-3{fill:#eb2441;stroke:#eb2441;}.cls-4{mix-blend-mode:multiply;}.cls-5{fill:#3778ff;stroke:#3778ff;}</style></defs><title>expanded-sm-logo</title><g class="cls-1"><g id="Layer_2" data-name="Layer 2"><g id="Layer_1-2" data-name="Layer 1"><path class="cls-2" d="M27.13,3.54"/><path class="cls-2" d="M28.94,21.71A11,11,0,0,1,24.38,17"/><path class="cls-2" d="M37.33,22.61a11,11,0,0,1-6.55-.1"/><path class="cls-2" d="M31.1,1.46a11,11,0,0,1,8.17,20.36"/><path class="cls-2" d="M24.52,6.8A11,11,0,0,1,29.24,2.2"/><path class="cls-2" d="M23.64,15.16a11,11,0,0,1,.1-6.55"/><path class="cls-2" d="M28.63,5"/><path class="cls-2" d="M32.78,20.83a8.9,8.9,0,0,1-4.48-2.12"/><path class="cls-2" d="M39.44,19.27a8.9,8.9,0,0,1-4.66,1.66"/><path class="cls-2" d="M29,4.75A8.94,8.94,0,0,1,40.93,17.91"/><path class="cls-2" d="M25.39,10.56a8.9,8.9,0,0,1,2.12-4.48"/><path class="cls-2" d="M27,17.23a8.9,8.9,0,0,1-1.67-4.66"/><path class="cls-2" d="M28.7,16.09"/><path class="cls-2" d="M30.11,6.48"/><path class="cls-2" d="M34,18.88a6.83,6.83,0,0,1-3.22-.94"/><path class="cls-2" d="M38.89,17A6.83,6.83,0,0,1,36,18.66"/><path class="cls-2" d="M29.58,7a6.87,6.87,0,0,1,10.58,8.51"/><path class="cls-2" d="M27.36,11.76a6.83,6.83,0,0,1,.94-3.22"/><path class="cls-2" d="M29.19,16.69a6.83,6.83,0,0,1-1.61-2.94"/><path class="cls-3" d="M34.21,1V5.12A6.73,6.73,0,0,1,41.05,12a6.72,6.72,0,0,1-6.84,6.83V23a11,11,0,1,0,0-22Zm11,11a11,11,0,0,0-11-11V5.12A6.73,6.73,0,0,1,41.05,12"/><g class="cls-4"><path class="cls-5" d="M33,2.2V6.35a6.73,6.73,0,0,1,6.84,6.87A6.72,6.72,0,0,1,33,20.05v4.18a11,11,0,1,0,0-22Zm11,11a11,11,0,0,0-11-11V6.35a6.73,6.73,0,0,1,6.84,6.87"/></g><path class="cls-3" d="M2.07,18.54l4.58-2.89a5,5,0,0,0,4.73,2.8c1.69,0,3-.6,3-1.87,0-3.82-11.5-1.17-11.5-9.06,0-4.64,4-7,7.8-7a10.81,10.81,0,0,1,7.71,3.31l-4,3.43a5,5,0,0,0-3.79-2A1.87,1.87,0,0,0,8.46,7.1c0,3.52,11.47.78,11.47,9.34,0,4.28-4.13,7.26-8.76,7.26A10.48,10.48,0,0,1,2.07,18.54Z"/><path class="cls-3" d="M87.81.8V23.39H82.2v-16l-6.12,16H73l-6.09-16v16h-5.6V.8h8l5.22,13.46L79.85.8Z"/><path class="cls-3" d="M107.7,19.38H98.28l-1.45,4H90.78L99.85.8h6.29l9.06,22.59h-6.05ZM106,14.8l-3-8.34-3,8.34Z"/><path class="cls-3" d="M136.29,10.26v8.55A10.72,10.72,0,0,1,127,23.69c-6.69,0-11.2-5.12-11.2-11.44A11.47,11.47,0,0,1,127,.5a13.11,13.11,0,0,1,8.55,3.4l-3.88,3.85a6.75,6.75,0,0,0-4.52-1.84,6.11,6.11,0,0,0-6,6.26c0,3.31,2.29,6.08,5.69,6.08a6.43,6.43,0,0,0,4.34-1.51V15H127.1v-4.7Z"/><path class="cls-3" d="M162.64.8V23.39h-5.87L146.44,9.14V23.39h-5.6V.8h5.84L157,15V.8Z"/><path class="cls-3" d="M173,5.68v4h7v4.88h-7v4h8.31v4.88H167.41V.8h13.91V5.68Z"/><path class="cls-3" d="M200.24,5.68H194.7V23.39h-5.57V5.68h-5.57V.8h16.68Z"/><path class="cls-3" d="M203.46.8h5.6V23.39h-5.6Z"/><path class="cls-3" d="M212.89,12.09A11.58,11.58,0,0,1,224.48.5a12.2,12.2,0,0,1,5.12,1.08v6a7.44,7.44,0,0,0-5.12-1.66,6.11,6.11,0,0,0-6.2,6.17,6.21,6.21,0,0,0,6.2,6.29,7.52,7.52,0,0,0,5.12-1.78v6a12.2,12.2,0,0,1-5.12,1.08A11.58,11.58,0,0,1,212.89,12.09Z"/><g class="cls-4"><path class="cls-5" d="M.66,19.77l4.58-2.89A5,5,0,0,0,10,19.68c1.69,0,3-.6,3-1.87,0-3.82-11.5-1.17-11.5-9.06,0-4.64,4-7,7.8-7A10.81,10.81,0,0,1,16.92,5l-4,3.43a5,5,0,0,0-3.79-2A1.87,1.87,0,0,0,7,8.33c0,3.52,11.47.78,11.47,9.34,0,4.28-4.13,7.26-8.76,7.26A10.48,10.48,0,0,1,.66,19.77Z"/><path class="cls-5" d="M86.39,2V24.62h-5.6v-16l-6.12,16h-3l-6.09-16v16h-5.6V2h8l5.22,13.46L78.43,2Z"/><path class="cls-5" d="M106.29,20.61H96.86l-1.45,4H89.37L98.43,2h6.29l9.06,22.59h-6.05ZM104.63,16l-3-8.34-3,8.34Z"/><path class="cls-5" d="M134.87,11.49V20a10.72,10.72,0,0,1-9.34,4.88c-6.69,0-11.2-5.12-11.2-11.44A11.47,11.47,0,0,1,125.57,1.73a13.11,13.11,0,0,1,8.55,3.4L130.24,9a6.75,6.75,0,0,0-4.52-1.84,6.11,6.11,0,0,0-6,6.26c0,3.31,2.29,6.08,5.69,6.08A6.43,6.43,0,0,0,129.75,18V16.18h-4.07v-4.7Z"/><path class="cls-5" d="M161.23,2V24.62h-5.87L145,10.37V24.62h-5.6V2h5.84l10.36,14.18V2Z"/><path class="cls-5" d="M171.59,6.91v4h7v4.88h-7v4h8.31v4.88H166V2h13.91V6.91Z"/><path class="cls-5" d="M198.82,6.91h-5.54V24.62h-5.57V6.91h-5.57V2h16.68Z"/><path class="cls-5" d="M202,2h5.6V24.62H202Z"/><path class="cls-5" d="M211.48,13.32A11.58,11.58,0,0,1,223.07,1.73a12.2,12.2,0,0,1,5.12,1.08v6a7.44,7.44,0,0,0-5.12-1.66,6.11,6.11,0,0,0-6.2,6.17,6.21,6.21,0,0,0,6.2,6.29,7.52,7.52,0,0,0,5.12-1.78v6a12.2,12.2,0,0,1-5.12,1.08A11.58,11.58,0,0,1,211.48,13.32Z"/></g></g></g></g></svg>