<svg xmlns="http://www.w3.org/2000/svg" viewBox="0 0 283.6 300"><defs><style>.cls-1{isolation:isolate;}.cls-2{fill:#323149;}.cls-3,.cls-4{mix-blend-mode:multiply;}.cls-4{fill:#3778ff;}.cls-5{fill:#eb2441;}</style></defs><title>magnet-color</title><g class="cls-1"><g id="Layer_2" data-name="Layer 2"><g id="Layer_1-2" data-name="Layer 1"><path class="cls-2" d="M19.29,100,8,95a141.18,141.18,0,0,0-2.27,86.59l11.54-4.43A128.86,128.86,0,0,1,19.29,100ZM100,264.35l-5,11.3a141.75,141.75,0,0,0,30.43,7V270.26A129,129,0,0,1,100,264.35Zm2-258.63,4.43,11.54a128.42,128.42,0,0,1,35.33-4.94V0A142.94,142.94,0,0,1,165.1,1.94,141,141,0,0,0,102.06,5.72ZM25.61,198.91l-11.53,4.43A141.21,141.21,0,0,0,73.7,266.17l5-11.3A128.86,128.86,0,0,1,25.61,198.91ZM80.3,14.07A141.12,141.12,0,0,0,17.47,73.7l11.29,5a128.86,128.86,0,0,1,56-53.11Z"/><path class="cls-2" d="M55.93,63.84a115.32,115.32,0,0,0-28.76,60.3l12.36.65A103.16,103.16,0,0,1,64.21,73ZM73,219.43l-9.2,8.28a120.19,120.19,0,0,0,61.58,29.36V244.41A105.68,105.68,0,0,1,73,219.43Zm.2-171.19,8.29,9.2a103,103,0,0,1,43.89-18V27A115.32,115.32,0,0,0,73.24,48.24ZM38.31,148.06,26,147.42a115.54,115.54,0,0,0,22.29,63l9.21-8.28A103.15,103.15,0,0,1,38.31,148.06Z"/><path class="cls-2" d="M65.43,92.93a90.21,90.21,0,0,0-14.22,45.12L63.6,137a78,78,0,0,1,11.35-36Zm76.39,127.26c-16.4.37-29.74-4.67-40.9-11.51l-8,9.52c13.86,8.9,28.24,14.55,48.87,14.55ZM80.41,75.08l9.52,8a78,78,0,0,1,35.49-17.89V52.63A90.26,90.26,0,0,0,80.41,75.08Zm-14.78,85.1-12.39,1.08a90.24,90.24,0,0,0,21.84,42l8-9.53A78,78,0,0,1,65.63,160.18Z"/><g class="cls-3"><path class="cls-4" d="M147.7,283.48c1.08-.05,2.16-.1,3.22-.17C149.85,283.38,148.78,283.44,147.7,283.48Z"/><path class="cls-4" d="M188.43,204.83l.07-.09a78.45,78.45,0,0,0,30.93-52A78.38,78.38,0,0,1,188.43,204.83Z"/><path class="cls-4" d="M233.54,249.94l0,0a140.42,140.42,0,0,1-78.74,33A141.23,141.23,0,0,0,233.54,249.94Z"/><path class="cls-5" d="M283.6,141.82A141.78,141.78,0,0,1,141.82,283.6V220.19a78.37,78.37,0,0,0,0-156.74V0A141.79,141.79,0,0,1,283.6,141.82Z"/><path class="cls-4" d="M267.2,158.22A141.78,141.78,0,0,1,125.42,300V236.59a78.37,78.37,0,0,0,0-156.74V16.43A141.79,141.79,0,0,1,267.2,158.22Z"/><path class="cls-2" d="M267.2,158.22a141.19,141.19,0,0,1-33.66,91.72,141.23,141.23,0,0,1-91.72,33.66V234.87a78.42,78.42,0,0,0,46.61-30A78.37,78.37,0,0,0,141.82,63.45V17.38A141.79,141.79,0,0,1,267.2,158.22Z"/></g></g></g></g></svg>