<svg xmlns="http://www.w3.org/2000/svg" viewBox="0 0 800 600"><defs><style>.cls-1{isolation:isolate;}.cls-2{fill:#fafafa;}.cls-3{fill:#323149;}.cls-4,.cls-5{mix-blend-mode:multiply;}.cls-5{fill:#3778ff;}.cls-6{fill:#eb2441;}</style></defs><title>magnet-icon-color</title><g class="cls-1"><g id="Layer_1" data-name="Layer 1"><rect class="cls-2" width="800" height="600"/><path class="cls-3" d="M277.48,250l-11.29-5a141.1,141.1,0,0,0-2.27,86.59l11.54-4.43A128.94,128.94,0,0,1,277.48,250Zm80.74,164.34-5,11.3a141.75,141.75,0,0,0,30.43,7V420.26A129,129,0,0,1,358.22,414.35Zm2-258.63,4.42,11.54A128.54,128.54,0,0,1,400,162.32V150a142.94,142.94,0,0,1,23.28,1.91A140.94,140.94,0,0,0,360.26,155.72ZM283.81,348.91l-11.54,4.43a141.23,141.23,0,0,0,59.63,62.83l5-11.3A128.8,128.8,0,0,1,283.81,348.91ZM338.5,164.07a141.12,141.12,0,0,0-62.83,59.63l11.29,5a128.86,128.86,0,0,1,56-53.11Z"/><path class="cls-3" d="M314.12,213.84a115.38,115.38,0,0,0-28.75,60.3l12.36.65A103.08,103.08,0,0,1,322.41,223Zm17.12,155.59-9.2,8.28a120.15,120.15,0,0,0,61.58,29.36V394.41A105.68,105.68,0,0,1,331.24,369.43Zm.2-171.19,8.29,9.2a102.94,102.94,0,0,1,43.89-18V177A115.32,115.32,0,0,0,331.44,198.24Zm-34.93,99.82-12.36-.64a115.46,115.46,0,0,0,22.29,63l9.21-8.28A103.15,103.15,0,0,1,296.51,298.06Z"/><path class="cls-3" d="M323.63,242.93a90.21,90.21,0,0,0-14.22,45.12L321.8,287a77.93,77.93,0,0,1,11.35-36ZM400,370.19c-16.4.37-29.74-4.67-40.9-11.51l-8,9.52c13.85,8.9,28.24,14.55,48.87,14.55ZM338.61,225.08l9.52,8a78,78,0,0,1,35.49-17.89V202.63A90.21,90.21,0,0,0,338.61,225.08Zm-14.78,85.1-12.39,1.08a90.24,90.24,0,0,0,21.84,42l8-9.53A78,78,0,0,1,323.83,310.18Z"/><g class="cls-4"><path class="cls-5" d="M405.9,433.48c1.08-.05,2.16-.1,3.22-.17C408.05,433.38,407,433.44,405.9,433.48Z"/><path class="cls-5" d="M446.63,354.83l.06-.09a78.46,78.46,0,0,0,30.94-52A78.38,78.38,0,0,1,446.63,354.83Z"/><path class="cls-5" d="M491.74,399.94l0,0A140.42,140.42,0,0,1,413,433,141.23,141.23,0,0,0,491.74,399.94Z"/><path class="cls-6" d="M541.8,291.82A141.78,141.78,0,0,1,400,433.6V370.19a78.37,78.37,0,0,0,0-156.74V150A141.79,141.79,0,0,1,541.8,291.82Z"/><path class="cls-5" d="M525.4,308.22A141.78,141.78,0,0,1,383.62,450V386.59a78.37,78.37,0,1,0,0-156.74V166.43A141.79,141.79,0,0,1,525.4,308.22Z"/><path class="cls-3" d="M525.4,308.22a141.19,141.19,0,0,1-33.66,91.72A141.23,141.23,0,0,1,400,433.6V384.87a78.45,78.45,0,0,0,46.61-30A78.37,78.37,0,0,0,400,213.45V167.38A141.8,141.8,0,0,1,525.4,308.22Z"/></g></g></g></svg>