<svg xmlns="http://www.w3.org/2000/svg" viewBox="0 0 38 38"><defs><style>.cls-1{isolation:isolate;}.cls-2,.cls-3{mix-blend-mode:multiply;}.cls-3{fill:#323149;}.cls-4{fill:#f2f2f2;}</style></defs><title>icon-research</title><g class="cls-1"><g id="Layer_2" data-name="Layer 2"><g id="Layer_1-2" data-name="Layer 1"><g class="cls-2"><circle class="cls-3" cx="19" cy="19" r="19"/></g><path class="cls-4" d="M10.32,20.66H9.69l-1-1.44H8.21v1.44H7.69V16.81H9.16A1.11,1.11,0,0,1,10.3,18a1.07,1.07,0,0,1-1,1.18ZM8.21,17.3v1.43h.92A.63.63,0,0,0,9.77,18a.64.64,0,0,0-.62-.72Z"/><path class="cls-4" d="M13.37,19.55H11.26a.8.8,0,0,0,.84.7.82.82,0,0,0,.74-.4l.44.17a1.29,1.29,0,0,1-1.2.69,1.3,1.3,0,0,1-1.33-1.36A1.29,1.29,0,0,1,12.08,18a1.26,1.26,0,0,1,1.29,1.35Zm-.5-.4a.76.76,0,0,0-.79-.7.78.78,0,0,0-.82.7Z"/><path class="cls-4" d="M13.92,18.66a.85.85,0,0,1,.9-.66.81.81,0,0,1,.91.73h-.49a.44.44,0,0,0-.8-.06.3.3,0,0,0,0,.21.48.48,0,0,0,.3.2l.39.09a.76.76,0,0,1,.67.76c0,.49-.47.78-1,.78a.9.9,0,0,1-1-.83h.46a.38.38,0,0,0,.21.29.66.66,0,0,0,.41.09c.24,0,.39-.15.4-.34s-.16-.28-.35-.33l-.36-.08C14.14,19.38,13.87,19.14,13.92,18.66Z"/><path class="cls-4" d="M18.92,19.55H16.81a.8.8,0,0,0,.84.7.85.85,0,0,0,.75-.4l.43.17a1.29,1.29,0,0,1-1.2.69,1.3,1.3,0,0,1-1.33-1.36A1.29,1.29,0,0,1,17.63,18a1.26,1.26,0,0,1,1.3,1.35A1.34,1.34,0,0,1,18.92,19.55Zm-.49-.4a.82.82,0,0,0-1.62,0Z"/><path class="cls-4" d="M21.64,20.25a1.05,1.05,0,0,1-.92.46,1.36,1.36,0,0,1,0-2.71,1.06,1.06,0,0,1,.92.44v-.39h.5v2.61h-.5Zm-.87-1.76a.83.83,0,0,0-.85.86.84.84,0,0,0,.85.87.83.83,0,0,0,.86-.87A.85.85,0,0,0,20.77,18.49Z"/><path class="cls-4" d="M23.5,20.66H23V18.05h.51v.59c.13-.46.38-.64.72-.64a1,1,0,0,1,.45.1l-.07.47a.9.9,0,0,0-.39-.09c-.5,0-.71.54-.71,1.23Z"/><path class="cls-4" d="M26.33,18a1.35,1.35,0,0,1,1,.41l-.38.33a.87.87,0,0,0-.62-.25.84.84,0,0,0-.87.86.85.85,0,0,0,.87.87A.84.84,0,0,0,27,20l.39.33a1.39,1.39,0,0,1-1,.42A1.34,1.34,0,0,1,25,19.35,1.33,1.33,0,0,1,26.33,18Z"/><path class="cls-4" d="M28.49,20.66H28v-4h.51v1.81a1,1,0,0,1,.86-.44,1,1,0,0,1,1,1.15v1.51h-.51V19.18a.61.61,0,0,0-.61-.69.73.73,0,0,0-.79.76Z"/></g></g></g></svg>