<svg xmlns="http://www.w3.org/2000/svg" viewBox="0 0 38 38"><defs><style>.cls-1{isolation:isolate;}.cls-2,.cls-3{mix-blend-mode:multiply;}.cls-3{fill:#eb2441;}.cls-4{fill:#f2f2f2;}</style></defs><title>icon-development</title><g class="cls-1"><g id="Layer_2" data-name="Layer 2"><g id="Layer_1-2" data-name="Layer 1"><g class="cls-2"><circle class="cls-3" cx="19" cy="19" r="19"/></g><path class="cls-4" d="M2.58,20.66V16.81H4.07A1.74,1.74,0,0,1,5.8,18.74a1.73,1.73,0,0,1-1.73,1.92Zm1.49-.49c.8,0,1.21-.62,1.21-1.43S4.87,17.3,4.07,17.3h-1v2.87Z"/><path class="cls-4" d="M9,19.55H6.86a.8.8,0,0,0,.84.7.82.82,0,0,0,.74-.4l.44.17a1.29,1.29,0,0,1-1.2.69,1.3,1.3,0,0,1-1.33-1.36A1.29,1.29,0,0,1,7.68,18,1.26,1.26,0,0,1,9,19.35Zm-.5-.4a.77.77,0,0,0-.79-.7.79.79,0,0,0-.82.7Z"/><path class="cls-4" d="M9.78,18.05l.79,2,.79-2h.54l-1.09,2.61h-.49L9.24,18.05Z"/><path class="cls-4" d="M14.8,19.55H12.69a.8.8,0,0,0,.84.7.85.85,0,0,0,.75-.4l.44.17a1.36,1.36,0,1,1-1.2-2,1.26,1.26,0,0,1,1.29,1.35A1.34,1.34,0,0,1,14.8,19.55Zm-.49-.4a.77.77,0,0,0-.79-.7.8.8,0,0,0-.83.7Z"/><path class="cls-4" d="M16,16.64v4h-.51v-4Z"/><path class="cls-4" d="M16.64,19.35a1.37,1.37,0,0,1,2.73,0,1.37,1.37,0,0,1-2.73,0Zm2.22,0a.86.86,0,1,0-.86.87A.83.83,0,0,0,18.86,19.35Z"/><path class="cls-4" d="M20.55,18.46a1,1,0,0,1,.91-.46,1.29,1.29,0,0,1,1.3,1.36,1.28,1.28,0,0,1-1.3,1.35,1,1,0,0,1-.91-.44v1.65H20V18.05h.51Zm.86,1.76a.81.81,0,0,0,.84-.85.85.85,0,1,0-1.69,0A.82.82,0,0,0,21.41,20.22Z"/><path class="cls-4" d="M25.74,19.25v1.41h-.5V19.18c0-.43-.23-.69-.57-.69a.69.69,0,0,0-.72.76v1.41h-.51V18.05H24v.39a.92.92,0,0,1,.72-.43A.86.86,0,0,1,25,18a.82.82,0,0,1,.68.5,1,1,0,0,1,.9-.53c.66,0,1,.42,1,1.15v1.51H27V19.18c0-.42-.22-.69-.6-.69A.7.7,0,0,0,25.74,19.25Z"/><path class="cls-4" d="M30.8,19.55H28.69a.8.8,0,0,0,.84.7.85.85,0,0,0,.75-.4l.43.17a1.28,1.28,0,0,1-1.2.69,1.3,1.3,0,0,1-1.33-1.36A1.29,1.29,0,0,1,29.51,18a1.26,1.26,0,0,1,1.3,1.35A1.34,1.34,0,0,1,30.8,19.55Zm-.49-.4a.78.78,0,0,0-.8-.7.79.79,0,0,0-.82.7Z"/><path class="cls-4" d="M32,20.66h-.51V18.05H32v.39a.91.91,0,0,1,.81-.44c.65,0,1,.42,1,1.15v1.51h-.5V19.18c0-.43-.22-.69-.58-.69a.69.69,0,0,0-.73.76Z"/><path class="cls-4" d="M35.85,18.05v.43H35.3v2.18h-.51V18.48h-.46v-.43h.46v-1h.51v1Z"/></g></g></g></svg>