<svg xmlns="http://www.w3.org/2000/svg" viewBox="0 0 527.55 490.34"><defs><style>.cls-1{isolation:isolate;}.cls-2{fill:#3778ff;}.cls-2,.cls-3,.cls-4,.cls-7{mix-blend-mode:multiply;}.cls-3,.cls-6{fill:#323149;}.cls-4{fill:#eb2441;}.cls-5{fill:#f2f2f2;}</style></defs><title>icon-process</title><g class="cls-1"><g id="Layer_2" data-name="Layer 2"><g id="Layer_1-2" data-name="Layer 1"><circle class="cls-2" cx="165.85" cy="165.85" r="165.85"/><circle class="cls-3" cx="361.7" cy="165.85" r="165.85"/><circle class="cls-4" cx="263.75" cy="324.49" r="165.85"/><path class="cls-5" d="M30.47,154.84h6.4c6.08,0,9.2,3.55,9.2,9s-3.12,9-9.2,9h-6.4Zm6.21,14.51c3.55,0,5.23-1.92,5.23-5.51s-1.68-5.51-5.23-5.51H34.44v11Z"/><path class="cls-5" d="M50.62,156.71a2.14,2.14,0,1,1,2.16,2.13A2.13,2.13,0,0,1,50.62,156.71Zm.22,3.72h3.81v12.41H50.84Z"/><path class="cls-5" d="M58.91,171.5l1.53-2.66a7.22,7.22,0,0,0,3.77,1.44c.78,0,1.31-.31,1.31-.92,0-.83-1.11-1.08-2.42-1.54-1.62-.55-3.59-1.25-3.59-3.75,0-2.66,2.22-3.87,4.77-3.87a8.76,8.76,0,0,1,4.57,1.3l-1.55,2.42a6.6,6.6,0,0,0-3.07-1c-.69,0-1.16.28-1.16.79,0,.75,1.19,1,2.57,1.4,1.66.56,3.55,1.34,3.55,3.94s-2.12,4-4.92,4A10,10,0,0,1,58.91,171.5Z"/><path class="cls-5" d="M72.58,166.63c0-3.8,3-6.43,6.88-6.43a7.09,7.09,0,0,1,5.3,2.19l-2.67,2.29a3.23,3.23,0,0,0-2.64-1.29,3.23,3.23,0,1,0,0,6.46,3.2,3.2,0,0,0,2.64-1.29l2.67,2.3a7.05,7.05,0,0,1-5.3,2.19C75.53,173.05,72.58,170.41,72.58,166.63Z"/><path class="cls-5" d="M87.71,166.63c0-3.79,2.94-6.43,6.88-6.43s6.89,2.64,6.89,6.43-3,6.44-6.89,6.44S87.71,170.43,87.71,166.63Zm10.11,0a3.17,3.17,0,0,0-3.24-3.24,3.23,3.23,0,1,0,3.24,3.24Z"/><path class="cls-5" d="M117.83,160.43l-5.24,12.41h-3.26l-5.21-12.41h4.08L111,168.6l2.8-8.17Z"/><path class="cls-5" d="M133.43,167.26h-9.17a2.85,2.85,0,0,0,3,2.83,3,3,0,0,0,2.79-1.6l3,1.27a6,6,0,0,1-5.79,3.31c-4.1,0-6.76-2.83-6.76-6.43a6.38,6.38,0,0,1,6.63-6.47,6.08,6.08,0,0,1,6.35,6.33ZM124.36,165h5.39a2.41,2.41,0,0,0-2.61-2.15A2.67,2.67,0,0,0,124.36,165Z"/><path class="cls-5" d="M145.75,160.31V164c-2.65,0-4.06.95-4.06,3.24v5.64h-3.83V160.43h3.65v2.47A5.29,5.29,0,0,1,145.75,160.31Z"/><path class="cls-5" d="M161.59,160.43l-7.3,18.25h-3.9l2.66-6.73-4.74-11.52h4.2l2.53,8,2.58-8Z"/><path class="cls-6" d="M196,173.07a165.59,165.59,0,0,0,67.76,126.64,165.6,165.6,0,0,0,67.75-126.62,166.28,166.28,0,0,0-135.51,0Z"/><path class="cls-5" d="M331.55,173.09a165.61,165.61,0,0,1-67.77,126.63A165.6,165.6,0,0,1,196,173.06a166.3,166.3,0,0,1,135.54,0Z"/><g class="cls-7"><path class="cls-6" d="M237.79,200.3c0,3-2,5-5.9,5h-7.66v-18h6.08c4,0,6.15,1.87,6.15,5a3.86,3.86,0,0,1-1.85,3.61A4.18,4.18,0,0,1,237.79,200.3Zm-9.7-9.66v4h2.37c1.68,0,2.38-.88,2.38-2s-.59-1.94-2.38-1.94Zm5.86,9.2c0-1.09-.71-2.15-2.61-2.15h-3.25v4.25h3.25C233.29,201.94,234,201,234,199.84Z"/><path class="cls-6" d="M250.29,192.81v3.65c-2.65,0-4.06.95-4.06,3.24v5.64H242.4V192.93h3.65v2.47A5.29,5.29,0,0,1,250.29,192.81Z"/><path class="cls-6" d="M253.27,199.11c0-3.8,2.73-6.5,5.93-6.5a4.79,4.79,0,0,1,3.87,1.73l0-1.41h3.83v12.41h-3.85v-1.43a4.77,4.77,0,0,1-3.87,1.69C256,205.6,253.27,202.91,253.27,199.11Zm10.28,0a3.23,3.23,0,1,0-3.2,3.3A3.12,3.12,0,0,0,263.55,199.11Z"/><path class="cls-6" d="M284,197.22v8.12h-3.87V198c0-1.72-.76-2.12-1.84-2.12s-2.11.77-2.12,2.42v7.06h-3.85V192.93h3.85v1.73a4.54,4.54,0,0,1,3.78-2C282.59,192.7,284,194.31,284,197.22Z"/><path class="cls-6" d="M288.27,199.11c0-3.8,2.73-6.5,5.93-6.5a4.79,4.79,0,0,1,3.86,1.73l0-7h3.83v18h-3.86v-1.43a4.75,4.75,0,0,1-3.86,1.69C291,205.6,288.27,202.91,288.27,199.11Zm10.27,0a3.22,3.22,0,1,0-3.2,3.3A3.12,3.12,0,0,0,298.54,199.11Z"/><path class="cls-6" d="M243.52,225.12c0,5.33-4.09,9.25-9.59,9.25s-9.58-3.92-9.58-9.23,4.09-9.23,9.58-9.23a9.55,9.55,0,0,1,7.95,3.9l-3.46,1.91a5.64,5.64,0,0,0-10.1,3.54,5.28,5.28,0,0,0,5.67,5.48c2.78,0,4.67-1.43,5.3-3.73h-4.58v-3.19h8.7A8.09,8.09,0,0,1,243.52,225.12Z"/><path class="cls-6" d="M247,227.93c0-3.79,2.94-6.44,6.88-6.44s6.89,2.65,6.89,6.44-3,6.44-6.89,6.44S247,231.73,247,227.93Zm10.11,0a3.17,3.17,0,0,0-3.24-3.24,3.23,3.23,0,1,0,3.24,3.24Z"/><path class="cls-6" d="M264.12,227.91c0-3.8,2.73-6.5,5.93-6.5a4.79,4.79,0,0,1,3.87,1.73l0-1.41h3.84v12.41h-3.86v-1.43a4.77,4.77,0,0,1-3.87,1.69C266.85,234.4,264.12,231.71,264.12,227.91Zm10.28,0a3.23,3.23,0,1,0-3.2,3.3A3.12,3.12,0,0,0,274.4,227.91Z"/><path class="cls-6" d="M283.21,216.14H287v18h-3.83Z"/><path class="cls-6" d="M291.3,232.8l1.53-2.66a7.22,7.22,0,0,0,3.77,1.44c.78,0,1.31-.31,1.31-.92,0-.83-1.11-1.08-2.42-1.54-1.62-.55-3.59-1.25-3.59-3.75,0-2.66,2.21-3.88,4.77-3.88a8.77,8.77,0,0,1,4.57,1.31l-1.55,2.42a6.6,6.6,0,0,0-3.07-1c-.69,0-1.16.28-1.16.79,0,.75,1.19,1,2.57,1.4,1.66.56,3.55,1.34,3.55,3.94s-2.12,4.05-4.92,4.05A10,10,0,0,1,291.3,232.8Z"/></g><path class="cls-5" d="M376.87,165.36h-2.52v7.48h-4v-18h7.12c4,0,6,2.43,6,5.43a4.89,4.89,0,0,1-3,4.6l4.74,8h-4.33Zm-2.52-3.09h2.91c1.64,0,2.38-.79,2.38-2.06s-.74-2.07-2.38-2.07h-2.91Z"/><path class="cls-5" d="M400.88,167.26h-9.17a2.85,2.85,0,0,0,3,2.83,3,3,0,0,0,2.79-1.6l3,1.27a6,6,0,0,1-5.79,3.31c-4.1,0-6.76-2.83-6.76-6.43a6.38,6.38,0,0,1,6.63-6.47,6.08,6.08,0,0,1,6.35,6.33ZM391.81,165h5.39a2.41,2.41,0,0,0-2.6-2.15A2.68,2.68,0,0,0,391.81,165Z"/><path class="cls-5" d="M404.12,171.5l1.52-2.66a7.28,7.28,0,0,0,3.77,1.44c.79,0,1.32-.31,1.32-.92,0-.83-1.12-1.08-2.43-1.54-1.62-.55-3.58-1.25-3.58-3.75,0-2.66,2.21-3.87,4.77-3.87a8.79,8.79,0,0,1,4.57,1.3l-1.55,2.42a6.64,6.64,0,0,0-3.07-1c-.69,0-1.16.28-1.16.79,0,.75,1.18,1,2.56,1.4,1.67.56,3.56,1.34,3.56,3.94s-2.13,4-4.93,4A10,10,0,0,1,404.12,171.5Z"/><path class="cls-5" d="M430.74,167.26h-9.16a2.85,2.85,0,0,0,3,2.83,3,3,0,0,0,2.79-1.6l3,1.27a6,6,0,0,1-5.79,3.31c-4.1,0-6.76-2.83-6.76-6.43a6.38,6.38,0,0,1,6.63-6.47,6.08,6.08,0,0,1,6.35,6.33ZM421.67,165h5.39a2.4,2.4,0,0,0-2.6-2.15A2.68,2.68,0,0,0,421.67,165Z"/><path class="cls-5" d="M434.18,166.61c0-3.8,2.73-6.5,5.93-6.5a4.81,4.81,0,0,1,3.87,1.73l0-1.41h3.83v12.41H444v-1.43a4.78,4.78,0,0,1-3.87,1.69C436.91,173.1,434.18,170.41,434.18,166.61Zm10.28,0a3.23,3.23,0,1,0-3.2,3.3A3.12,3.12,0,0,0,444.46,166.61Z"/><path class="cls-5" d="M461.15,160.31V164c-2.65,0-4,.95-4,3.24v5.64h-3.84V160.43h3.65v2.47A5.29,5.29,0,0,1,461.15,160.31Z"/><path class="cls-5" d="M464.08,166.63c0-3.8,2.94-6.43,6.87-6.43a7.09,7.09,0,0,1,5.3,2.19l-2.67,2.29a3.23,3.23,0,0,0-2.64-1.29,3.23,3.23,0,1,0,0,6.46,3.2,3.2,0,0,0,2.64-1.29l2.67,2.3a7.05,7.05,0,0,1-5.3,2.19C467,173.05,464.08,170.41,464.08,166.63Z"/><path class="cls-5" d="M491.93,164.72v8.12h-3.85v-7.36c0-1.7-.78-2.12-1.79-2.12-1.36,0-2.2.8-2.2,2.5v7h-3.84v-18h3.84v7.39a4.43,4.43,0,0,1,3.79-2C490.46,160.2,491.93,161.81,491.93,164.72Z"/><path class="cls-5" d="M174.71,383.53h6.4c6.08,0,9.2,3.55,9.2,9s-3.12,9-9.2,9h-6.4ZM180.92,398c3.55,0,5.23-1.92,5.23-5.51s-1.68-5.51-5.23-5.51h-2.24v11Z"/><path class="cls-5" d="M207,396h-9.17a2.85,2.85,0,0,0,3,2.83,3,3,0,0,0,2.79-1.6l3,1.27a6,6,0,0,1-5.79,3.31c-4.1,0-6.76-2.83-6.76-6.43a6.38,6.38,0,0,1,6.63-6.47,6.08,6.08,0,0,1,6.35,6.33Zm-9.07-2.23h5.39a2.41,2.41,0,0,0-2.6-2.15A2.68,2.68,0,0,0,197.91,393.72Z"/><path class="cls-5" d="M223.37,389.12l-5.24,12.41h-3.27l-5.2-12.41h4.08l2.76,8.17,2.8-8.17Z"/><path class="cls-5" d="M239,396H229.8a2.85,2.85,0,0,0,3,2.83,3,3,0,0,0,2.79-1.6l3,1.27a6,6,0,0,1-5.79,3.31c-4.1,0-6.76-2.83-6.76-6.43a6.38,6.38,0,0,1,6.64-6.47,6.09,6.09,0,0,1,6.35,6.33Zm-9.07-2.23h5.39a2.39,2.39,0,0,0-2.6-2.15A2.68,2.68,0,0,0,229.89,393.72Z"/><path class="cls-5" d="M243.4,383.53h3.83v18H243.4Z"/><path class="cls-5" d="M251.63,395.32c0-3.79,2.94-6.44,6.88-6.44s6.89,2.65,6.89,6.44-3,6.44-6.89,6.44S251.63,399.12,251.63,395.32Zm10.11,0a3.17,3.17,0,0,0-3.24-3.24,3.23,3.23,0,1,0,3.24,3.24Z"/><path class="cls-5" d="M269.8,389.12h3.83v1.44a4.82,4.82,0,0,1,3.84-1.68c3.28,0,6,2.66,6,6.47s-2.68,6.41-6,6.41a4.8,4.8,0,0,1-3.84-1.66v7.27H269.8Zm9.82,6.23a3.22,3.22,0,1,0-3.22,3.31A3.12,3.12,0,0,0,279.62,395.35Z"/><path class="cls-5" d="M306.84,393v8.54H303v-7.59a1.76,1.76,0,0,0-1.81-2c-1.25,0-1.89.93-1.89,2.19v7.37h-3.86v-7.59a1.74,1.74,0,0,0-1.79-2c-1.26,0-1.91.93-1.91,2.19v7.37h-3.84V389.12h3.84v1.79a4.29,4.29,0,0,1,3.63-2,3.54,3.54,0,0,1,3.54,2,4.58,4.58,0,0,1,3.78-2A3.78,3.78,0,0,1,306.84,393Z"/><path class="cls-5" d="M324,396h-9.16a2.85,2.85,0,0,0,3,2.83,3,3,0,0,0,2.79-1.6l3,1.27a6,6,0,0,1-5.79,3.31c-4.1,0-6.76-2.83-6.76-6.43a6.38,6.38,0,0,1,6.63-6.47,6.08,6.08,0,0,1,6.35,6.33Zm-9.07-2.23h5.39a2.4,2.4,0,0,0-2.6-2.15A2.68,2.68,0,0,0,314.9,393.72Z"/><path class="cls-5" d="M340.09,393.41v8.12h-3.87v-7.36c0-1.72-.76-2.12-1.84-2.12-1.23,0-2.11.77-2.12,2.42v7.06h-3.85V389.12h3.85v1.73a4.53,4.53,0,0,1,3.77-2C338.64,388.88,340.09,390.5,340.09,393.41Z"/><path class="cls-5" d="M349.64,391.66v5.42c0,1.1.57,1.57,1.39,1.57h1.22v2.88H350c-2.64,0-4.2-1.44-4.2-4v-5.85h-1.92v-2.54h1.92v-3.43h3.85v3.43h2.67v2.54Z"/></g></g></g></svg>