<svg xmlns="http://www.w3.org/2000/svg" viewBox="0 0 38 38"><defs><style>.cls-1{isolation:isolate;}.cls-2,.cls-3{mix-blend-mode:multiply;}.cls-3{fill:#3778ff;}.cls-4{fill:#f2f2f2;}</style></defs><title>icon-discovery</title><g class="cls-1"><g id="Layer_2" data-name="Layer 2"><g id="Layer_1-2" data-name="Layer 1"><g class="cls-2"><circle class="cls-3" cx="19" cy="19" r="19"/></g><path class="cls-4" d="M7.22,20.66V16.81H8.71a1.74,1.74,0,0,1,1.73,1.93,1.73,1.73,0,0,1-1.73,1.92Zm1.49-.49c.8,0,1.21-.62,1.21-1.43S9.51,17.3,8.71,17.3h-1v2.87Z"/><path class="cls-4" d="M11.38,16.76a.33.33,0,1,1,0,.66.33.33,0,1,1,0-.66Zm.26,1.29h-.51v2.61h.51Z"/><path class="cls-4" d="M12.38,18.66a.85.85,0,0,1,.9-.66.8.8,0,0,1,.9.73H13.7a.44.44,0,0,0-.8-.06.3.3,0,0,0,0,.21.48.48,0,0,0,.3.2l.39.09a.76.76,0,0,1,.67.76c0,.49-.46.78-1,.78a.91.91,0,0,1-1-.84h.47a.38.38,0,0,0,.21.3.66.66,0,0,0,.41.09.39.39,0,0,0,.4-.34c0-.19-.16-.28-.35-.33l-.35-.08C12.6,19.38,12.33,19.14,12.38,18.66Z"/><path class="cls-4" d="M16.14,18a1.38,1.38,0,0,1,1,.41l-.38.33a.87.87,0,0,0-.62-.25.84.84,0,0,0-.88.85.86.86,0,0,0,.88.88.84.84,0,0,0,.62-.26l.38.33a1.39,1.39,0,0,1-2.38-.95A1.32,1.32,0,0,1,16.14,18Z"/><path class="cls-4" d="M17.55,19.34a1.36,1.36,0,0,1,2.72,0,1.36,1.36,0,1,1-2.72,0Zm2.22,0a.86.86,0,0,0-1.72,0,.86.86,0,1,0,1.72,0Z"/><path class="cls-4" d="M21.1,18.05l.79,2,.78-2h.55l-1.09,2.61h-.48l-1.09-2.61Z"/><path class="cls-4" d="M26.12,19.55H24a.8.8,0,0,0,.84.7.85.85,0,0,0,.75-.4L26,20a1.28,1.28,0,0,1-1.2.69,1.3,1.3,0,0,1-1.33-1.37A1.28,1.28,0,0,1,24.83,18a1.25,1.25,0,0,1,1.3,1.34A1.41,1.41,0,0,1,26.12,19.55Zm-.49-.4a.77.77,0,0,0-.8-.7.78.78,0,0,0-.82.7Z"/><path class="cls-4" d="M27.28,20.66h-.5V18.05h.5v.59c.14-.46.39-.64.73-.64a1,1,0,0,1,.45.1l-.08.47a.86.86,0,0,0-.38-.09c-.5,0-.72.54-.72,1.23Z"/><path class="cls-4" d="M29.15,21.92l.55-1.34-1-2.53h.54L30,19.94l.78-1.89h.54l-1.62,3.87Z"/></g></g></g></svg>