<svg xmlns="http://www.w3.org/2000/svg" viewBox="0 0 547.63 579.29"><defs><style>.cls-1{isolation:isolate;}.cls-2{fill:#331141;}.cls-3{fill:#3778ff;mix-blend-mode:multiply;}.cls-4{fill:#eb2441;}</style></defs><title>magnet-color</title><g class="cls-1"><g id="Layer_2" data-name="Layer 2"><g id="Layer_1-2" data-name="Layer 1"><path class="cls-2" d="M37.24,193.12l-21.81-9.71a272.57,272.57,0,0,0-4.38,167.21l22.28-8.55A248.84,248.84,0,0,1,37.24,193.12ZM193.13,510.45l-9.71,21.81a273.81,273.81,0,0,0,58.76,13.57v-24A250.25,250.25,0,0,1,193.13,510.45ZM49.45,384.08l-22.27,8.55A272.62,272.62,0,0,0,142.31,514L152,492.15A248.9,248.9,0,0,1,49.45,384.08ZM155.06,27.17A272.62,272.62,0,0,0,33.73,142.3L55.54,152A248.9,248.9,0,0,1,163.61,49.44Zm42-16.13,8.55,22.28a248.47,248.47,0,0,1,68.23-9.54V0A272.15,272.15,0,0,0,197.07,11Z"/><path class="cls-2" d="M108,123.26A222.84,222.84,0,0,0,52.47,239.71L76.33,241A199.13,199.13,0,0,1,124,141ZM141,423.7l-17.77,16c33.42,30.42,76.58,49.93,118.91,56.42V471.36C206,465.36,169.94,449.39,141,423.7Zm.39-330.55,16,17.77a198.7,198.7,0,0,1,84.75-34.8V52.07A222.65,222.65,0,0,0,141.43,93.15ZM74,285.9l-23.87-1.25A222.94,222.94,0,0,0,93.16,406.26l17.77-16A199.13,199.13,0,0,1,74,285.9Z"/><path class="cls-2" d="M126.35,179.44a174.24,174.24,0,0,0-27.47,87.12l23.93-2.09a150.55,150.55,0,0,1,21.92-69.6ZM264.48,424.88A150.55,150.55,0,0,1,194.88,403l-15.43,18.38a174.24,174.24,0,0,0,87.12,27.47ZM155.27,145l18.39,15.43a150.47,150.47,0,0,1,68.52-34.54V101.62A174.31,174.31,0,0,0,155.27,145ZM126.73,309.3l-23.92,2.09a174.2,174.2,0,0,0,42.17,81L160.41,374A150.5,150.5,0,0,1,126.73,309.3Z"/><path class="cls-3" d="M285.21,547.38c2.08-.08,4.16-.18,6.22-.32Q288.33,547.27,285.21,547.38Z"/><path class="cls-3" d="M363.85,395.51l.13-.17A151.51,151.51,0,0,0,423.71,295,151.22,151.22,0,0,1,363.85,395.51Z"/><path class="cls-3" d="M451,482.62a.3.3,0,0,1-.08.08,271.24,271.24,0,0,1-152,63.8A272.61,272.61,0,0,0,451,482.62Z"/><path class="cls-4" d="M547.63,273.84c0,151.2-122.58,273.78-273.78,273.78V425.17a151.33,151.33,0,0,0,0-302.66V.06C425.05.06,547.63,122.64,547.63,273.84Z"/><path class="cls-3" d="M516,305.51c0,151.2-122.58,273.78-273.78,273.78V456.84a151.33,151.33,0,0,0,0-302.66V31.73C393.38,31.73,516,154.31,516,305.51Z"/></g></g></g></svg>