<svg xmlns="http://www.w3.org/2000/svg" viewBox="0 0 561.73 60.76"><defs><style>.cls-1{isolation:isolate;}.cls-2{fill:#eb2441;}.cls-3{fill:#3778ff;}.cls-3,.cls-5{mix-blend-mode:multiply;}.cls-4{fill:#323149;}</style></defs><title>magnet-wordmark-color_1</title><g class="cls-1"><g id="Layer_1" data-name="Layer 1"><path class="cls-2" d="M19.21,16.29a4.33,4.33,0,0,1,3.58-4.43A9.65,9.65,0,0,0,21,11.68c-3,0-5.21,1.64-5.21,4.61,0,8.71,28.35,1.94,28.35,23.07,0,10-9.2,17.18-19.95,17.87.58,0,1.15.06,1.74.06,11.45,0,21.65-7.37,21.65-17.93C47.56,18.23,19.21,25,19.21,16.29Z"/><path class="cls-2" d="M40.18,8.18,32.27,15a13.45,13.45,0,0,1,1.52,1.65l9.82-8.49c-4.46-5-12-8.18-19-8.18C24,0,23.43,0,22.86.07,29.35.54,36.08,3.61,40.18,8.18Z"/><path class="cls-2" d="M14.75,37.42,12.23,39A12.51,12.51,0,0,0,23,44.34a15.82,15.82,0,0,0,1.72-.09A12.14,12.14,0,0,1,14.75,37.42Z"/><path class="cls-3" d="M30.28,39.73c0,2.68-2.3,4.15-5.57,4.52a16,16,0,0,0,1.72.09c4.16,0,7.29-1.49,7.29-4.61,0-9.45-28.42-2.9-28.42-22.4C5.3,6.57,14,.73,22.86.07,22.28,0,21.7,0,21.13,0,11.76,0,1.86,5.88,1.86,17.33,1.86,36.83,30.28,30.28,30.28,39.73Z"/><path class="cls-3" d="M30.36,16.67,32.27,15a11.92,11.92,0,0,0-7.85-3.34,7.08,7.08,0,0,0-1.63.18A12.91,12.91,0,0,1,30.36,16.67Z"/><path class="cls-3" d="M3.44,44.57,12.23,39a12.43,12.43,0,0,1-.92-1.59L0,44.57c3.57,6.77,12.28,12.72,22.47,12.72.57,0,1.14,0,1.7-.06C14.74,56.6,6.8,51,3.44,44.57Z"/><polygon class="cls-2" points="159.36 20.09 159.36 56.54 162.8 56.54 162.8 25.41 159.36 20.09"/><polygon class="cls-2" points="178.94 22.97 163.99 0.74 160.56 0.74 177.22 25.52 178.94 22.97"/><rect class="cls-2" x="208.91" y="0.74" width="3.44" height="55.8"/><polygon class="cls-2" points="195.08 20.16 178.87 44.97 180.58 47.62 195.08 25.42 195.08 20.16"/><polygon class="cls-4" points="197.4 0.74 180.66 25.52 178.94 22.97 177.22 25.52 160.56 0.74 148.96 0.74 148.96 56.54 159.36 56.54 159.36 20.09 162.8 25.41 162.8 20.09 178.87 44.97 195.08 20.16 195.08 25.42 198.51 20.16 198.51 56.54 208.91 56.54 208.91 0.74 197.4 0.74"/><path class="cls-4" d="M241.22.74l-22.4,55.8h11.52l3.57-9.89h26.73l3.57,9.89h11.52L253.33.74Zm11.89,34.6h-15l7.51-20.61,1.72,4.71L249,14.73l7.51,20.61Z"/><polygon class="cls-3" points="247.31 19.44 253.11 35.34 256.55 35.34 249.03 14.73 247.31 19.44"/><polygon class="cls-3" points="257.2 46.65 260.77 56.54 264.21 56.54 260.64 46.65 257.2 46.65"/><polygon class="cls-3" points="237.78 0.74 215.39 56.54 218.82 56.54 241.22 0.74 237.78 0.74"/><polygon class="cls-2" points="238.08 35.34 241.52 35.34 247.31 19.44 245.59 14.73 238.08 35.34"/><polygon class="cls-2" points="256.77 0.74 253.33 0.74 275.73 56.54 279.16 56.54 256.77 0.74"/><polygon class="cls-2" points="230.34 56.54 233.78 56.54 237.35 46.65 233.91 46.65 230.34 56.54"/><path class="cls-4" d="M308.55,35.71H318.6v4.47c-1.72,2-6.4,3.72-10.72,3.72a14.92,14.92,0,0,1-1.65-.1c-.6.06-1.19.1-1.78.1-8.41,0-14.07-6.85-14.07-15a15.1,15.1,0,0,1,14.81-15.48,14.22,14.22,0,0,1,1.73.11,14,14,0,0,1,1.71-.11,17.11,17.11,0,0,1,9.29,3l8-8A32.58,32.58,0,0,0,306.54.06c-13.76.9-26,12.6-26,29,0,15.07,10.39,27.37,26,28.22,8.93-.49,17-4.8,21.35-12V24.11H308.55Z"/><path class="cls-3" d="M280.5,29c0-16.36,12.28-28.06,26-29C306,0,305.39,0,304.82,0c-14.44,0-27.75,12-27.75,29,0,15.62,11.16,28.27,27.67,28.27.58,0,1.15,0,1.72,0C290.89,56.39,280.5,44.09,280.5,29Z"/><rect class="cls-3" x="305.12" y="24.11" width="3.44" height="11.61"/><path class="cls-3" d="M316.35,17.93l1.57-1.55a17.11,17.11,0,0,0-9.29-3,14,14,0,0,0-1.71.11A16.69,16.69,0,0,1,316.35,17.93Z"/><path class="cls-3" d="M318.6,40.18V35.71h-3.44v4.47c-1.48,1.73-5.17,3.24-8.93,3.62a14.92,14.92,0,0,0,1.65.1C312.2,43.9,316.88,42.18,318.6,40.18Z"/><path class="cls-2" d="M326,8.41l-8,8a12.32,12.32,0,0,1,1.87,1.55l9.59-9.52A32.38,32.38,0,0,0,308.25,0q-.86,0-1.71.06A32.58,32.58,0,0,1,326,8.41Z"/><path class="cls-2" d="M327.81,24.11V45.24c-4.34,7.2-12.42,11.51-21.35,12,.57,0,1.14,0,1.72,0,9.6,0,18.45-4.39,23.06-12V24.11Z"/><path class="cls-2" d="M293.82,28.87a15.15,15.15,0,0,1,13.1-15.37,14.22,14.22,0,0,0-1.73-.11,15.1,15.1,0,0,0-14.81,15.48c0,8.18,5.66,15,14.07,15,.59,0,1.18,0,1.78-.1C298.74,43,293.82,36.5,293.82,28.87Z"/><polygon class="cls-4" points="382.51 0.74 382.51 35.79 379.07 31.08 379.07 35.79 353.48 0.74 342.48 0.74 342.48 56.54 352.88 56.54 352.88 21.35 356.32 26.09 356.32 21.35 381.84 56.54 392.91 56.54 392.91 0.74 382.51 0.74"/><polygon class="cls-2" points="379.07 31.08 356.91 0.74 353.48 0.74 379.07 35.79 379.07 31.08"/><polygon class="cls-2" points="352.88 21.35 352.88 56.54 356.32 56.54 356.32 26.09 352.88 21.35"/><rect class="cls-2" x="392.91" y="0.74" width="3.44" height="55.8"/><polygon class="cls-3" points="382.51 35.79 382.51 0.74 379.07 0.74 379.07 31.08 382.51 35.79"/><rect class="cls-3" x="339.04" y="0.74" width="3.44" height="55.8"/><polygon class="cls-3" points="356.32 26.09 378.4 56.54 381.84 56.54 356.32 21.35 356.32 26.09"/><rect class="cls-2" x="472.07" y="12.8" width="3.44" height="43.75"/><rect class="cls-2" x="485.76" y="0.74" width="3.44" height="12.05"/><polygon class="cls-4" points="447.98 0.74 447.98 12.8 458.3 12.8 461.74 12.8 461.74 56.54 472.07 56.54 472.07 12.8 475.5 12.8 485.76 12.8 485.76 0.74 447.98 0.74"/><rect class="cls-3" x="444.54" y="0.74" width="3.44" height="12.05"/><rect class="cls-3" x="458.3" y="12.8" width="3.44" height="43.75"/><rect class="cls-4" x="497.16" y="0.74" width="10.4" height="55.8"/><rect class="cls-2" x="507.56" y="0.74" width="3.44" height="55.8"/><rect class="cls-3" x="493.72" y="0.74" width="3.44" height="55.8"/><path class="cls-2" d="M547.67,13.46c-.66-.05-1.33-.07-2-.07a15.11,15.11,0,0,0-15.33,15.25,15.35,15.35,0,0,0,15.33,15.55c.65,0,1.28,0,1.91-.07a15.38,15.38,0,0,1-13.8-15.48A15.06,15.06,0,0,1,547.67,13.46Z"/><path class="cls-2" d="M549.09,0c-.56,0-1.11,0-1.65.05A29.71,29.71,0,0,1,558.3,2.68V15.24a16.66,16.66,0,0,1,3.43,2.24V2.68A30.05,30.05,0,0,0,549.09,0Z"/><path class="cls-2" d="M558.3,54.61a29.91,29.91,0,0,1-10.86,2.63c.54,0,1.09,0,1.65,0a30.05,30.05,0,0,0,12.64-2.68V39.8a15.89,15.89,0,0,1-3.43,2.34Z"/><path class="cls-4" d="M520.44,28.64a28.61,28.61,0,0,0,27,28.6,29.91,29.91,0,0,0,10.86-2.63V42.14a20,20,0,0,1-9.21,2c-.52,0-1,0-1.53-.07s-1.26.07-1.91.07a15.35,15.35,0,0,1-15.33-15.55,15.11,15.11,0,0,1,15.33-15.25c.69,0,1.36,0,2,.07.46,0,.94-.07,1.42-.07a20.39,20.39,0,0,1,9.21,1.85V2.68A29.71,29.71,0,0,0,547.44.05,28.6,28.6,0,0,0,520.44,28.64Z"/><path class="cls-3" d="M547.56,44.12c.5.05,1,.07,1.53.07a20,20,0,0,0,9.21-2V39.8A18,18,0,0,1,547.56,44.12Z"/><path class="cls-3" d="M520.44,28.64a28.6,28.6,0,0,1,27-28.59c-.59,0-1.19,0-1.79,0a28.65,28.65,0,0,0,0,57.29c.6,0,1.2,0,1.79,0A28.61,28.61,0,0,1,520.44,28.64Z"/><path class="cls-3" d="M549.09,13.39c-.48,0-1,0-1.42.07a17.37,17.37,0,0,1,10.63,4V15.24A20.39,20.39,0,0,0,549.09,13.39Z"/><path class="cls-4" d="M24.17,57.23c10.75-.69,19.95-7.84,19.95-17.87,0-21.13-28.35-14.36-28.35-23.07,0-3,2.23-4.61,5.21-4.61a9.65,9.65,0,0,1,1.81.18,7.08,7.08,0,0,1,1.63-.18A11.92,11.92,0,0,1,32.27,15l7.91-6.84C36.08,3.61,29.35.54,22.86.07,14,.73,5.3,6.57,5.3,17.33c0,19.5,28.42,13,28.42,22.4,0,3.12-3.13,4.61-7.29,4.61a16,16,0,0,1-1.72-.09,15.82,15.82,0,0,1-1.72.09A12.51,12.51,0,0,1,12.23,39L3.44,44.57C6.8,51,14.74,56.6,24.17,57.23Z"/><polygon class="cls-3" points="180.66 25.52 197.4 0.74 193.96 0.74 178.94 22.97 180.66 25.52"/><rect class="cls-3" x="145.53" y="0.74" width="3.44" height="55.8"/><polygon class="cls-3" points="195.08 25.42 195.08 56.54 198.51 56.54 198.51 20.16 195.08 25.42"/><polygon class="cls-3" points="162.8 20.09 162.8 25.41 177.15 47.62 178.87 44.97 162.8 20.09"/><rect class="cls-2" x="418.5" y="12.8" width="3.44" height="9.82"/><rect class="cls-2" x="418.5" y="34.67" width="3.44" height="9.82"/><rect class="cls-2" x="435.91" y="22.62" width="3.44" height="12.05"/><rect class="cls-2" x="439.03" y="0.74" width="3.44" height="12.05"/><rect class="cls-2" x="439.03" y="44.49" width="3.44" height="12.05"/><polygon class="cls-4" points="421.94 44.49 418.5 44.49 418.5 34.67 421.94 34.67 435.91 34.67 435.91 22.62 421.94 22.62 418.5 22.62 418.5 12.8 421.94 12.8 439.04 12.8 439.04 0.74 408.1 0.74 408.1 56.54 439.04 56.54 439.04 44.49 421.94 44.49"/><rect class="cls-3" x="404.66" y="0.74" width="3.44" height="55.8"/><path class="cls-4" d="M58.3,20.26l-2.28-1a28.57,28.57,0,0,0-.46,17.54l2.33-.9A26.2,26.2,0,0,1,58.3,20.26ZM74.66,53.54l-1,2.29a28,28,0,0,0,6.16,1.42V54.74A26.31,26.31,0,0,1,74.66,53.54Zm.41-52.38L76,3.5a25.94,25.94,0,0,1,7.15-1V0a29.38,29.38,0,0,1,4.72.38A28.62,28.62,0,0,0,75.07,1.16ZM59.58,40.29l-2.33.89A28.59,28.59,0,0,0,69.32,53.91l1-2.29A26.11,26.11,0,0,1,59.58,40.29ZM70.66,2.85A28.48,28.48,0,0,0,57.94,14.93l2.28,1A26.07,26.07,0,0,1,71.56,5.19Z"/><path class="cls-4" d="M65.72,12.93A23.34,23.34,0,0,0,59.9,25.14l2.5.14a20.91,20.91,0,0,1,5-10.49Zm3.47,31.51-1.86,1.68a24.33,24.33,0,0,0,12.47,6V49.5A21.35,21.35,0,0,1,69.19,44.44Zm0-34.67,1.68,1.87A20.81,20.81,0,0,1,79.8,8V5.46A23.39,23.39,0,0,0,69.23,9.77ZM62.16,30l-2.51-.13a23.41,23.41,0,0,0,4.52,12.75L66,40.94A21,21,0,0,1,62.16,30Z"/><path class="cls-4" d="M67.65,18.82A18.31,18.31,0,0,0,64.77,28l2.51-.22a15.69,15.69,0,0,1,2.3-7.3ZM83.12,44.6a14.93,14.93,0,0,1-8.28-2.33L73.22,44.2a17.15,17.15,0,0,0,9.9,2.94ZM70.68,15.21l1.93,1.62A15.76,15.76,0,0,1,79.8,13.2V10.66A18.32,18.32,0,0,0,70.68,15.21Zm-3,17.23-2.51.22a18.25,18.25,0,0,0,4.42,8.5l1.62-1.93A15.79,15.79,0,0,1,67.69,32.44Z"/><g class="cls-5"><path class="cls-3" d="M84.31,57.42l.66,0Z"/><path class="cls-3" d="M92.56,41.49l0,0a15.88,15.88,0,0,0,6.26-10.53A15.86,15.86,0,0,1,92.56,41.49Z"/><path class="cls-3" d="M101.7,50.62h0a28.41,28.41,0,0,1-16,6.69A28.48,28.48,0,0,0,101.7,50.62Z"/><path class="cls-2" d="M111.84,28.72A28.72,28.72,0,0,1,83.12,57.44V44.6a15.88,15.88,0,1,0,0-31.75V0A28.71,28.71,0,0,1,111.84,28.72Z"/><path class="cls-3" d="M108.52,32.05A28.71,28.71,0,0,1,79.8,60.76V47.92a15.88,15.88,0,0,0,0-31.75V3.33A28.72,28.72,0,0,1,108.52,32.05Z"/><path class="cls-4" d="M108.52,32.05a28.61,28.61,0,0,1-6.82,18.57,28.56,28.56,0,0,1-18.58,6.82V47.57a15.87,15.87,0,0,0,9.44-6.08,15.87,15.87,0,0,0-9.44-28.64V3.52A28.72,28.72,0,0,1,108.52,32.05Z"/></g></g></g></svg>