<svg xmlns="http://www.w3.org/2000/svg" viewBox="0 0 41.81 44.55"><defs><style>.cls-1{isolation:isolate;}.cls-2{fill:none;stroke:#331141;}.cls-2,.cls-3,.cls-5{stroke-miterlimit:10;stroke-width:1.81px;}.cls-3{fill:#eb2441;stroke:#eb2441;}.cls-4{mix-blend-mode:multiply;}.cls-5{fill:#3778ff;stroke:#3778ff;}</style></defs><title>sm-icon</title><g class="cls-1"><g id="Layer_2" data-name="Layer 2"><g id="Layer_1-2" data-name="Layer 1"><path class="cls-2" d="M8.06,5.57"/><path class="cls-2" d="M11.34,38.54A19.9,19.9,0,0,1,3.07,30"/><path class="cls-2" d="M26.56,40.16A19.9,19.9,0,0,1,14.68,40"/><path class="cls-2" d="M15.25,1.8A20,20,0,0,1,30.08,38.75"/><path class="cls-2" d="M3.32,11.47a19.91,19.91,0,0,1,8.56-8.33"/><path class="cls-2" d="M1.73,26.64a19.9,19.9,0,0,1,.18-11.89"/><path class="cls-2" d="M10.78,8.21"/><path class="cls-2" d="M18.3,36.94a16.14,16.14,0,0,1-8.12-3.85"/><path class="cls-2" d="M30.38,34.1a16.14,16.14,0,0,1-8.46,3"/><path class="cls-2" d="M11.45,7.75A16.22,16.22,0,0,1,33.1,31.64"/><path class="cls-2" d="M4.91,18.31a16.14,16.14,0,0,1,3.85-8.12"/><path class="cls-2" d="M7.75,30.4a16.14,16.14,0,0,1-3-8.46"/><path class="cls-2" d="M10.91,28.33"/><path class="cls-2" d="M13.47,10.9"/><path class="cls-2" d="M20.47,33.39a12.39,12.39,0,0,1-5.84-1.7"/><path class="cls-2" d="M29.4,30.08A12.39,12.39,0,0,1,24.08,33"/><path class="cls-2" d="M12.5,11.77A12.46,12.46,0,0,1,31.69,27.21"/><path class="cls-2" d="M8.48,20.48a12.39,12.39,0,0,1,1.7-5.84"/><path class="cls-2" d="M11.8,29.42a12.39,12.39,0,0,1-2.93-5.33"/><path class="cls-3" d="M20.9.91V8.44A12.21,12.21,0,0,1,33.31,20.9,12.2,12.2,0,0,1,20.9,33.29v7.58a20,20,0,1,0,0-40Zm20,20a20,20,0,0,0-20-20V8.44A12.21,12.21,0,0,1,33.31,20.9"/><g class="cls-4"><path class="cls-5" d="M18.11,3.67V11.2A12.21,12.21,0,0,1,30.52,23.67,12.2,12.2,0,0,1,18.11,36.06v7.58a20,20,0,1,0,0-40Zm20,20a20,20,0,0,0-20-20V11.2A12.21,12.21,0,0,1,30.52,23.67"/></g></g></g></g></svg>