<svg id="Layer_1" data-name="Layer 1" xmlns="http://www.w3.org/2000/svg" viewBox="0 0 148.9 32.75"><defs><style>.cls-1{fill:#353263;}.cls-2{fill:#eb2441;}</style></defs><title>cod-logo</title><path class="cls-1" d="M.6,16.52a5.22,5.22,0,0,1,5.19-5.24h0a5.56,5.56,0,0,1,3.48,1.34.23.23,0,0,1,0,.39l-.43.43a.24.24,0,0,1-.33,0s0,0,0,0a4.24,4.24,0,0,0-2.69-1,4.08,4.08,0,0,0,0,8.16,4.16,4.16,0,0,0,2.69-1,.25.25,0,0,1,.35,0l0,0,.43.43a.23.23,0,0,1,0,.39,5.53,5.53,0,0,1-3.49,1.34A5.23,5.23,0,0,1,.6,16.53Z"/><path class="cls-1" d="M10.66,16.52a5.24,5.24,0,1,1,5.24,5.24h0a5.23,5.23,0,0,1-5.24-5.22Zm9.32,0a4.06,4.06,0,1,0,0,.05Z"/><path class="cls-1" d="M23.33,21.35V11.69a.24.24,0,0,1,.2-.27h.88a.33.33,0,0,1,.33.2l3.4,7.6c.09.21.26.21.35,0l3.4-7.6a.34.34,0,0,1,.33-.2H33a.24.24,0,0,1,.27.2v9.73a.24.24,0,0,1-.2.27H32.4a.24.24,0,0,1-.27-.22v-7c0-.26-.2-.33-.32-.07l-3.16,7.1a.33.33,0,0,1-.33.2h0a.34.34,0,0,1-.33-.2l-3.15-7.09c-.1-.26-.32-.2-.32.07v7a.23.23,0,0,1-.19.27h-.72a.25.25,0,0,1-.28-.2Z"/><path class="cls-1" d="M36.21,21.35V11.69a.25.25,0,0,1,.19-.28.2.2,0,0,1,.13,0h3.68a3.09,3.09,0,0,1,0,6.18H37.66a.25.25,0,0,0-.27.22v3.53a.24.24,0,0,1-.2.27h-.66a.24.24,0,0,1-.31-.14A.28.28,0,0,1,36.21,21.35Zm3.86-4.78a1.92,1.92,0,0,0,2.12-1.66,1.63,1.63,0,0,0,0-.38,2,2,0,0,0-1.84-2.08h-2.7a.25.25,0,0,0-.27.23v3.6a.25.25,0,0,0,.23.27h0Z"/><path class="cls-2" d="M51.06,19.64c.13.29,0,.46-.32.46H45.16c-.31,0-.43-.17-.33-.46l2.84-7.09c.16-.33.4-.33.56,0Z"/><path class="cls-1" d="M53.79,20.34a.24.24,0,0,1,0-.35l0,0,.43-.43a.22.22,0,0,1,.31-.06l.06.06A3,3,0,0,0,57,20.67,1.84,1.84,0,0,0,59,19.07a.76.76,0,0,0,0-.15c0-1.13-1.07-1.63-2.26-2.1-1.41-.59-2.74-1.14-2.74-2.9a2.65,2.65,0,0,1,2.63-2.65h.29a3.7,3.7,0,0,1,2.76,1.19.24.24,0,0,1,0,.34l0,0-.34.35a.25.25,0,0,1-.39,0,2.66,2.66,0,0,0-2-.87,1.58,1.58,0,0,0-1.75,1.4.76.76,0,0,0,0,.15c0,1.13,1.13,1.57,2.27,2s2.67,1.13,2.67,3a2.81,2.81,0,0,1-2.77,2.85,1.82,1.82,0,0,1-.33,0A4.53,4.53,0,0,1,53.79,20.34Z"/><path class="cls-1" d="M61.56,20.34a.25.25,0,0,1,0-.35s0,0,0,0l.43-.43a.23.23,0,0,1,.32-.06.17.17,0,0,1,.06.06,3,3,0,0,0,2.36,1.13,1.84,1.84,0,0,0,2.06-1.6c0-.05,0-.1,0-.15,0-1.13-1.08-1.63-2.27-2.1-1.4-.59-2.73-1.14-2.73-2.9a2.64,2.64,0,0,1,2.6-2.68h.24a3.71,3.71,0,0,1,2.76,1.19.24.24,0,0,1,0,.33.08.08,0,0,1,0,0l-.34.35c-.12.14-.26.13-.4,0a2.69,2.69,0,0,0-2-.87A1.59,1.59,0,0,0,62.9,13.7a.76.76,0,0,0,0,.15c0,1.13,1.13,1.57,2.27,2.05s2.67,1.13,2.67,3a2.81,2.81,0,0,1-2.76,2.86h-.2A4.56,4.56,0,0,1,61.56,20.34Z"/><path class="cls-1" d="M73.33,16.52a5.24,5.24,0,1,1,5.24,5.24,5.25,5.25,0,0,1-5.24-5.24Zm9.32,0a4.08,4.08,0,1,0-4.08,4.08h0a4.05,4.05,0,0,0,4.08-4Z"/><path class="cls-1" d="M86,21.35V11.69a.23.23,0,0,1,.19-.27h5.13a.25.25,0,0,1,.28.2v.62a.24.24,0,0,1-.2.27h-4a.25.25,0,0,0-.27.22v3a.26.26,0,0,0,.23.28h3.38a.23.23,0,0,1,.27.19v.62a.24.24,0,0,1-.2.27.09.09,0,0,1-.07,0H87.43a.26.26,0,0,0-.27.23v4.06a.24.24,0,0,1-.2.27h-.68a.24.24,0,0,1-.27-.2A.09.09,0,0,1,86,21.35Z"/><path class="cls-1" d="M97.55,21.35V11.69a.24.24,0,0,1,.2-.27h2.88a4.72,4.72,0,0,1,5.1,4.32,5.08,5.08,0,0,1,0,.78,4.72,4.72,0,0,1-4.32,5.1,5.08,5.08,0,0,1-.78,0H97.82a.24.24,0,0,1-.27-.2A.09.09,0,0,1,97.55,21.35Zm3.07-.86c2.62,0,4-1.46,4-4s-1.33-3.93-4-3.93H99a.26.26,0,0,0-.27.23v7.53a.25.25,0,0,0,.23.27h0Z"/><path class="cls-1" d="M108,21.35V11.69a.24.24,0,0,1,.2-.27h5.13a.25.25,0,0,1,.28.2v.62a.24.24,0,0,1-.2.27h-3.93a.23.23,0,0,0-.27.22,0,0,0,0,0,0,0v2.94a.25.25,0,0,0,.22.27h3.38a.24.24,0,0,1,.27.2.09.09,0,0,1,0,.07v.54a.24.24,0,0,1-.19.28h-3.41a.23.23,0,0,0-.27.22,0,0,0,0,0,0,.05v2.91a.23.23,0,0,0,.22.27h4a.24.24,0,0,1,.27.2.11.11,0,0,1,0,.08v.54a.24.24,0,0,1-.2.27h-5.13a.23.23,0,0,1-.31-.12A.26.26,0,0,1,108,21.35Z"/><path class="cls-1" d="M115.07,20.34a.25.25,0,0,1,0-.35l0,0,.44-.43a.22.22,0,0,1,.31-.06.17.17,0,0,1,.06.06,3,3,0,0,0,2.36,1.13,1.84,1.84,0,0,0,2.06-1.6.76.76,0,0,0,0-.15c0-1.13-1.07-1.63-2.27-2.1-1.4-.59-2.73-1.14-2.73-2.9a2.64,2.64,0,0,1,2.6-2.68h.24a3.7,3.7,0,0,1,2.76,1.19.23.23,0,0,1,0,.33.08.08,0,0,1,0,0l-.34.35a.24.24,0,0,1-.39,0,2.71,2.71,0,0,0-2-.87,1.59,1.59,0,0,0-1.75,1.41.76.76,0,0,0,0,.15c0,1.13,1.13,1.57,2.27,2.05s2.67,1.13,2.67,3a2.81,2.81,0,0,1-2.77,2.85,1.83,1.83,0,0,1-.33,0A4.53,4.53,0,0,1,115.07,20.34Z"/><path class="cls-1" d="M123.6,21.35V11.69a.24.24,0,0,1,.2-.27h.64a.24.24,0,0,1,.27.2v9.73a.24.24,0,0,1-.2.27h-.68a.23.23,0,0,1-.23-.24Z"/><path class="cls-1" d="M135.69,18.65a4,4,0,0,1-3.5,1.94,4.08,4.08,0,1,1,3.27-6.54.27.27,0,0,0,.37.11h0l.53-.32a.23.23,0,0,0,.12-.31s0,0,0-.06a5.24,5.24,0,1,0-4.27,8.29A5.11,5.11,0,0,0,137,18.6c0-.13,0-.25-.24-.25H136C135.86,18.36,135.83,18.41,135.69,18.65Z"/><path class="cls-1" d="M139.47,21.35V11.69a.24.24,0,0,1,.2-.27H140a.38.38,0,0,1,.34.15l6.49,7.64c.17.18.34.12.34-.13V11.69a.25.25,0,0,1,.22-.27H148a.25.25,0,0,1,.28.2v9.73a.24.24,0,0,1-.2.27h-.37a.4.4,0,0,1-.34-.14l-6.48-7.65c-.16-.18-.34-.12-.34.13v7.4a.24.24,0,0,1-.2.27.11.11,0,0,1-.08,0h-.54a.23.23,0,0,1-.23-.24Z"/><path class="cls-2" d="M57.65,23.41a11.87,11.87,0,0,1-8,4.89.84.84,0,0,0-.67.51l-.8,2c-.1.21-.26.21-.36,0l-.81-2a.81.81,0,0,0-.67-.51A11.81,11.81,0,0,1,38,23.08a1.75,1.75,0,0,0,.8-.77s.08,0,.09.07a10.73,10.73,0,0,0,7.37,4.75,11.49,11.49,0,0,0,1.66.13,10.36,10.36,0,0,0,1.67-.14,10.6,10.6,0,0,0,6.64-3.74,4.69,4.69,0,0,0,1.4,0Z"/><path class="cls-2" d="M57.67,9.63a4.45,4.45,0,0,0-.73,0,4.21,4.21,0,0,0-.71,0,10.6,10.6,0,0,0-5.51-3.51h-.15a3.22,3.22,0,0,1-2-1.5h0l-.32-.54a.33.33,0,0,0-.44-.15.43.43,0,0,0-.15.15l-.32.54h0a3.19,3.19,0,0,1-2,1.45h-.17A10.68,10.68,0,0,0,39.6,9.65H38.16A11.88,11.88,0,0,1,44.84,5a3.13,3.13,0,0,0,1.83-1.42l1-1.65a.32.32,0,0,1,.44-.15.28.28,0,0,1,.15.15l1,1.65A3.06,3.06,0,0,0,51.06,5,11.83,11.83,0,0,1,57.67,9.63Z"/><rect class="cls-2" x="133.35" y="16.28" width="4.08" height="1.09" rx="0.24" ry="0.24"/></svg>