<svg id="Layer_1" data-name="Layer 1" xmlns="http://www.w3.org/2000/svg" viewBox="0 0 155.13 124.42"><defs><style>.cls-1{fill:#1d334b;}.cls-2{fill:#f3c417;}</style></defs><title>cm-logo-6-icon-color-copyright</title><polygon class="cls-1" points="42.14 124.42 0 124.42 0 0 125 0 125 42.39 107.87 42.39 107.87 17.13 17.13 17.13 17.13 107.29 42.14 107.29 42.14 124.42"/><rect class="cls-2" x="53.27" y="52.99" width="17.13" height="71.43"/><rect class="cls-2" x="80.89" y="72.5" width="17.13" height="51.92"/><rect class="cls-2" x="107.87" y="52.99" width="17.13" height="71.43"/><path class="cls-1" d="M150.16,11.42l-.37.39a4.64,4.64,0,0,1-3.36,1.43,4.68,4.68,0,1,1,0-9.35,4.63,4.63,0,0,1,3.24,1.32l.4.38-1.19,1.19-.38-.37a3,3,0,1,0,.08,4.23l.39-.41Z"/><path class="cls-1" d="M146.46,17.13A8.57,8.57,0,1,1,155,8.57,8.57,8.57,0,0,1,146.46,17.13Zm0-15.57a7,7,0,1,0,7,7A7,7,0,0,0,146.46,1.56Z"/></svg>