<svg id="Layer_1" data-name="Layer 1" xmlns="http://www.w3.org/2000/svg" viewBox="0 0 128.75 116.06"><defs><style>.cls-1{fill:#1d334b;}.cls-2{fill:#f3c417;}</style></defs><title>cm-logo-5-initial-color-copyright</title><polygon class="cls-1" points="74.13 114.91 1.32 114.91 1.32 1.15 110.7 1.15 110.7 25.97 99.18 25.97 99.18 12.67 12.95 12.67 12.95 103.39 74.13 103.39 74.13 114.91"/><path class="cls-2" d="M123.84,68.7l-1.64,1.7a20.52,20.52,0,1,1-.52-29l1.76,1.7-5.21,5.21-1.7-1.62a13,13,0,0,0-9.07-3.66c-7.24,0-12.59,5.88-12.59,13.11s5.35,13.12,12.59,13.12a13,13,0,0,0,9.45-4.05l1.7-1.76Z"/><rect class="cls-2" x="89.04" y="81.53" width="8.56" height="33.38"/><rect class="cls-2" x="101.66" y="90.45" width="8.56" height="24.46"/><rect class="cls-2" x="113.99" y="81.53" width="8.56" height="33.38"/><path class="cls-1" d="M124.16,8.83l-.25.26a3.14,3.14,0,1,1-.08-4.44l.27.26-.8.8L123,5.46a2,2,0,1,0-1.39,3.46,2,2,0,0,0,1.45-.62l.26-.27Z"/><path class="cls-1" d="M121.67,12.67a5.76,5.76,0,1,1,5.76-5.76A5.76,5.76,0,0,1,121.67,12.67Zm0-10.47a4.72,4.72,0,1,0,4.71,4.71A4.72,4.72,0,0,0,121.67,2.2Z"/></svg>