<svg xmlns="http://www.w3.org/2000/svg" viewBox="0 0 135.57 85.21"><title>tgf-2-stacked-lockup-dark</title><g id="Content"><path d="M133.78,85.21H1.79A1.79,1.79,0,0,1,0,83.42V1.84A1.79,1.79,0,0,1,1.79.05h132a1.79,1.79,0,0,1,1.79,1.79V83.42A1.79,1.79,0,0,1,133.78,85.21ZM3.59,81.62H132v-78H3.59Z"/><path d="M52.21,85.16H1.79A1.79,1.79,0,0,1,0,83.37V1.79A1.79,1.79,0,0,1,1.79,0H52.21A1.79,1.79,0,0,1,54,1.79V83.37A1.79,1.79,0,0,1,52.21,85.16ZM3.59,81.58H50.42v-78H3.59Z"/><path d="M133.78,85.21H52.21a1.79,1.79,0,0,1-1.79-1.79V1.84A1.79,1.79,0,0,1,52.21.05h81.57a1.79,1.79,0,0,1,1.79,1.79V83.42A1.79,1.79,0,0,1,133.78,85.21ZM54,81.62h78v-78H54Z"/><path d="M119,6.44h9.14a1.05,1.05,0,0,1,1.06,1.06V21.58a.68.68,0,0,1-1.32.24,34.89,34.89,0,0,0-9.36-14.21A.68.68,0,0,1,119,6.44Z"/><path d="M16.6,78.78H7.45a1.07,1.07,0,0,1-1.06-1.06V63.63a.68.68,0,0,1,1.32-.24,35,35,0,0,0,9.36,14.22A.68.68,0,0,1,16.6,78.78Z"/><path d="M52.21,50H44.85a1.79,1.79,0,0,1-1.79-1.79V36.31a1.79,1.79,0,0,1,1.79-1.79h7.36A1.79,1.79,0,0,1,54,36.31V48.22A1.79,1.79,0,0,1,52.21,50Zm-5.56-3.59h3.77V38.11H46.65Z"/><path d="M133.78,85.21H52.21a1.79,1.79,0,0,1-1.79-1.79V1.84A1.79,1.79,0,0,1,52.21.05h81.57a1.79,1.79,0,0,1,1.79,1.79V83.42A1.79,1.79,0,0,1,133.78,85.21ZM54,81.62h78v-78H54Z"/><path d="M119,6.44h9.14a1.05,1.05,0,0,1,1.06,1.06V21.58a.68.68,0,0,1-1.32.24,34.89,34.89,0,0,0-9.36-14.21A.68.68,0,0,1,119,6.44Z"/><path d="M69.7,60a8.44,8.44,0,0,1-.6,3.5,5.41,5.41,0,0,1-5.24,3.22,5.77,5.77,0,0,1-6.08-6A5.84,5.84,0,0,1,64,54.59a5.21,5.21,0,0,1,5.12,3.21L66.26,59a2.5,2.5,0,0,0-2.44-1.81c-1.69,0-3,1.52-3,3.57a4.11,4.11,0,0,0,1,2.76,2.6,2.6,0,0,0,2,.82,2.09,2.09,0,0,0,2.34-2H63.82V60ZM84.31,55H81.08l-3.41,8.88H73.16V55h-3V66.33h9.63l.78-2H84.7l.74,2h3.15ZM81.44,62.1l1.25-3.64L83.9,62.1Zm13.8-4.2a3,3,0,0,0-1.94-.77c-.72,0-1.27.43-1.27,1a.73.73,0,0,0,.28.57c.32.27.44.32,1.77.71,2,.58,2.8,1.5,2.8,3.2a3.71,3.71,0,0,1-1.16,2.95,5,5,0,0,1-3.29,1.07,7,7,0,0,1-4-1.28L89.74,63a3.92,3.92,0,0,0,2.62,1.16c.87,0,1.43-.44,1.43-1.11s-.39-.9-1.77-1.31a5.85,5.85,0,0,1-2.17-.92,2.77,2.77,0,0,1-.91-2.26,3.67,3.67,0,0,1,3.88-3.84,7.87,7.87,0,0,1,3.6.93Zm8.4,0a3,3,0,0,0-2-.77,1.13,1.13,0,0,0-1.26,1,.76.76,0,0,0,.27.57c.33.27.45.32,1.78.71,2,.58,2.8,1.5,2.8,3.2a3.71,3.71,0,0,1-1.16,2.95,5,5,0,0,1-3.3,1.07,7,7,0,0,1-3.94-1.28L98.14,63a3.92,3.92,0,0,0,2.62,1.16c.87,0,1.43-.44,1.43-1.11s-.39-.9-1.78-1.31a5.86,5.86,0,0,1-2.16-.92,2.77,2.77,0,0,1-.91-2.26,3.67,3.67,0,0,1,3.88-3.84,7.87,7.87,0,0,1,3.6.93ZM67.38,47.52a2.39,2.39,0,0,0-.58.48,12.5,12.5,0,0,0-2.67,4.29.24.24,0,0,0,0,.08c-.14.54-.33.59-.79.21a1.36,1.36,0,0,1-.43-1.67c.36-1,.76-1.9,1.17-2.83s.9-2,1.35-3a.66.66,0,0,0,.08-.26h0c-.39.08-.8.15-1.15.24-.09,0-.17.17-.22.28-.41,1-1,2-1.46,3-.62,1.51-.83,2.28-1.45,3.79L61,52.6c-.19.49-.47.55-.87.2a1.11,1.11,0,0,1-.32-1.28c.44-1.34.76-1.9,1.26-3.21.38-1,.81-1.94,1.22-2.91a2.86,2.86,0,0,0,.1-.36s0,0,0,0c-.5.06-.94.12-1.39.16-1.38.12-1.38.23-2.75.34-.4,0-.5-.1-.39-.47a1.55,1.55,0,0,1,1.55-1.14c1.77-.11,2.15-.19,3.91-.3,1-.07,1.5-.11,2.48-.22l.06,0a3.21,3.21,0,0,0,.16-.85c0-.23,1.24.11,1.53.53a.5.5,0,0,0,.36.15c.45,0,.91-.06,1.37-.05.15,0,.39.06.44.16s-.05.33-.13.47a1.62,1.62,0,0,1-1.77.83c-.12,0-.22,0-.39.21-.6,1-1.15,2-1.76,3.05-.13.21,0,.16.13,0a7.36,7.36,0,0,1,.6-.78,4.89,4.89,0,0,1,1.85-1.49c.31-.13.63-.24.93,0a.81.81,0,0,1,.23,1c-.24.71-1.73,4.2-1.73,4.39s.2.07.24,0A7.39,7.39,0,0,0,69,49.84c.54-.76,1-1.37,1.59-2.13,1.54-2.38,2.85-2.28,3.28-2.15a1.22,1.22,0,0,1,.87,1.56,2.67,2.67,0,0,1-1.26,1.67,5.36,5.36,0,0,1-2.1.8c-.14,0-1.12,1-.38,1.28.47.17,1.6-.76,2-1.14a.57.57,0,0,1,1,.14,3.13,3.13,0,0,1-.42.76,4.92,4.92,0,0,1-2.46,1.77,1.55,1.55,0,0,1-1.6-.61c-.19-.33-.11-.9-.34-.59a5.26,5.26,0,0,1-.67.77,2.47,2.47,0,0,1-2.16.42c-.69-.15-.49-.91-.19-1.77a22.66,22.66,0,0,1,1.35-3C67.55,47.48,67.54,47.41,67.38,47.52ZM73.27,47c-.57.16-1.67,1.25-1.66,1.65h0c1-.17,1.81-1,1.66-1.66ZM61.14,70v1.88h3.22v2.5H61.14v4.45H58.2V67.46h6.49V70Zm13.68,8.83H71.15l-2.8-4.35v4.35H65.41V67.46H70a3.54,3.54,0,0,1,2.79,1,3.65,3.65,0,0,1,1,2.49,3.37,3.37,0,0,1-1,2.51,3.11,3.11,0,0,1-1.45.68Zm-5.93-6.25a2.05,2.05,0,0,0,1.26-.31,1.44,1.44,0,0,0,.56-1.1,1.47,1.47,0,0,0-.56-1.1,2.2,2.2,0,0,0-1.26-.31h-.54v2.82ZM85,69a6.06,6.06,0,0,1-.49,8.74,6.31,6.31,0,0,1-4.19,1.42,6,6,0,0,1-6.22-6.14,5.93,5.93,0,0,1,2.13-4.5,6.36,6.36,0,0,1,4.14-1.43A6.06,6.06,0,0,1,85,69Zm-7.82,4.09A3.19,3.19,0,1,0,80.4,70,3.18,3.18,0,0,0,77.21,73.12Zm10-5.66h2.93l5.42,6.93V67.46H98.5V78.79H95.57l-5.42-6.93v6.93H87.22ZM110.8,78.79h-2.94V67.46h2.94Zm4-8.83v1.88h3.31v2.5h-3.31v2h3.5v2.5h-6.44V67.46h6.44V70Zm13.68,8.83h-3.66L122,74.44v4.35H119V67.46h4.57a3.51,3.51,0,0,1,2.78,1,3.66,3.66,0,0,1,1,2.49,3.34,3.34,0,0,1-1,2.51,3.07,3.07,0,0,1-1.44.68Zm-5.92-6.25a2,2,0,0,0,1.25-.31,1.42,1.42,0,0,0,.57-1.1,1.45,1.45,0,0,0-.57-1.1,2.18,2.18,0,0,0-1.25-.31H122v2.82Zm-17.81,6.25h-2.93V70h-2.4v-2.5h7.78V70h-2.45Z"/></g></svg>