<svg xmlns="http://www.w3.org/2000/svg" viewBox="0 0 100 51.99"><defs><style>.cls-1{fill:#fff;}</style></defs><title>tgf-4-type-only-lockup-light</title><g id="Content"><path class="cls-1" d="M16.86,24.85A11.8,11.8,0,0,1,16,29.8,7.65,7.65,0,0,1,8.6,34.37,8.17,8.17,0,0,1,0,25.82c0-5.15,3.55-8.65,8.75-8.65A7.38,7.38,0,0,1,16,21.71l-4,1.64a3.56,3.56,0,0,0-3.46-2.56c-2.39,0-4.18,2.15-4.18,5.05a5.79,5.79,0,0,0,1.45,3.92,3.69,3.69,0,0,0,2.85,1.16,3.35,3.35,0,0,0,2.73-1.19A3.17,3.17,0,0,0,12,28.11H8.55V24.85Zm20.68-7.17H33L28.15,30.24H21.77V17.68H17.59V33.79H31.21L32.32,31H38.1l1,2.8h4.47ZM33.48,27.8l1.77-5.15L37,27.8ZM53,21.86a4.24,4.24,0,0,0-2.75-1.09c-1,0-1.79.6-1.79,1.4a1.08,1.08,0,0,0,.39.8c.46.38.63.46,2.51,1,2.8.82,4,2.13,4,4.52a5.23,5.23,0,0,1-1.64,4.18A7.11,7.11,0,0,1,49,34.2a9.9,9.9,0,0,1-5.58-1.81L45.24,29a5.55,5.55,0,0,0,3.69,1.64c1.23,0,2-.63,2-1.57s-.55-1.28-2.51-1.86a8,8,0,0,1-3.07-1.31,3.91,3.91,0,0,1-1.28-3.18,5.19,5.19,0,0,1,5.48-5.44,11.23,11.23,0,0,1,5.1,1.3Zm11.89,0a4.26,4.26,0,0,0-2.75-1.09c-1,0-1.79.6-1.79,1.4a1,1,0,0,0,.39.8c.45.38.62.46,2.51,1,2.8.82,4,2.13,4,4.52a5.26,5.26,0,0,1-1.64,4.18,7.12,7.12,0,0,1-4.67,1.52,10,10,0,0,1-5.58-1.81L57.12,29a5.59,5.59,0,0,0,3.7,1.64c1.23,0,2-.63,2-1.57s-.56-1.28-2.51-1.86a8,8,0,0,1-3.07-1.31A3.88,3.88,0,0,1,56,22.73a5.19,5.19,0,0,1,5.48-5.44,11.26,11.26,0,0,1,5.1,1.3ZM13.58,7.17a3.29,3.29,0,0,0-.81.67A17.87,17.87,0,0,0,9,13.92S9,14,9,14c-.19.76-.45.83-1.11.3A1.92,1.92,0,0,1,7.23,12c.51-1.36,1.08-2.69,1.66-4s1.27-2.83,1.91-4.24a1.17,1.17,0,0,0,.11-.38h0c-.54.11-1.13.21-1.62.34-.13,0-.25.24-.31.39C8.38,5.45,7.47,6.83,6.9,8.23,6,10.37,5.72,11.46,4.83,13.59c-.1.26-.22.51-.33.77-.27.68-.67.78-1.23.28a1.61,1.61,0,0,1-.46-1.82c.63-1.88,1.08-2.69,1.79-4.54.53-1.39,1.15-2.74,1.73-4.11,0-.14.08-.29.14-.51,0,0,0,0,0,0-.7.08-1.33.16-2,.22C2.55,4,2.55,4.2.6,4.36,0,4.4-.1,4.21.06,3.68a2.17,2.17,0,0,1,2.2-1.6c2.49-.16,3-.27,5.53-.44,1.39-.09,2.11-.15,3.5-.31l.08,0a4.14,4.14,0,0,0,.24-1.2c0-.33,1.75.16,2.15.74a.71.71,0,0,0,.52.22c.64,0,1.29-.08,1.93-.08.22,0,.56.09.62.24s-.06.46-.17.66a2.28,2.28,0,0,1-2.51,1.17c-.17,0-.31-.07-.55.3C12.75,4.78,12,6.25,11.11,7.67c-.18.31,0,.24.18,0a11.49,11.49,0,0,1,.85-1.1,7,7,0,0,1,2.62-2.11c.44-.18.89-.34,1.32,0a1.18,1.18,0,0,1,.33,1.34c-.35,1-2.45,6-2.45,6.2s.28.11.34.08a10.33,10.33,0,0,0,1.62-1.63c.77-1.09,1.48-2,2.25-3,2.18-3.36,4-3.23,4.65-3A1.74,1.74,0,0,1,24.05,6.6,3.79,3.79,0,0,1,22.26,9a7.53,7.53,0,0,1-3,1.14c-.2,0-1.59,1.43-.54,1.81.66.23,2.26-1.08,2.79-1.61a.8.8,0,0,1,1.4.19,4.39,4.39,0,0,1-.6,1.08,6.83,6.83,0,0,1-3.47,2.5,2.2,2.2,0,0,1-2.28-.86c-.26-.47-.15-1.28-.48-.83a6.29,6.29,0,0,1-.94,1.08,3.48,3.48,0,0,1-3.06.6c-1-.21-.69-1.3-.26-2.5a29,29,0,0,1,1.91-4.25C13.83,7.11,13.82,7,13.58,7.17Zm8.34-.78c-.8.23-2.36,1.77-2.35,2.33h0c1.36-.24,2.56-1.44,2.35-2.34ZM4.75,38.92v2.67H9.32v3.53H4.75v6.29H.6v-16H9.77v3.53ZM24.11,51.41H18.92l-4-6.15v6.15H10.8v-16h6.47a5,5,0,0,1,3.94,1.42,5.21,5.21,0,0,1,1.37,3.53,4.74,4.74,0,0,1-1.47,3.55,4.37,4.37,0,0,1-2,1Zm-8.38-8.84a3,3,0,0,0,1.78-.43,2,2,0,0,0,.79-1.56A2.08,2.08,0,0,0,17.51,39a3.15,3.15,0,0,0-1.78-.43H15v4Zm22.84-5A8.59,8.59,0,0,1,37.87,50a8.9,8.9,0,0,1-5.93,2,8.52,8.52,0,0,1-8.8-8.7,8.41,8.41,0,0,1,3-6.36,9,9,0,0,1,5.86-2A8.65,8.65,0,0,1,38.57,37.6ZM27.49,43.39A4.52,4.52,0,1,0,32,39,4.51,4.51,0,0,0,27.49,43.39Zm14.17-8h4.15l7.67,9.8v-9.8h4.15v16H53.48l-7.67-9.8v9.8H41.66ZM75,51.41H70.87v-16H75Zm5.61-12.49v2.67h4.68v3.53H80.64v2.76h4.94v3.53h-9.1v-16h9.1v3.53ZM100,51.41H94.81l-4-6.15v6.15H86.69v-16h6.46a5,5,0,0,1,3.94,1.42,5.16,5.16,0,0,1,1.37,3.53A4.74,4.74,0,0,1,97,43.89a4.42,4.42,0,0,1-2,1Zm-8.38-8.84a2.94,2.94,0,0,0,1.77-.43,2,2,0,0,0,.8-1.56,2.06,2.06,0,0,0-.8-1.56,3.09,3.09,0,0,0-1.77-.43h-.77v4Zm-25.2,8.84H62.26V38.92H58.88V35.39h11v3.53H66.42Z"/></g></svg>