<svg xmlns="http://www.w3.org/2000/svg" viewBox="0 0 85.21 85.21"><defs><style>.cls-1{fill:#74c0c9;}</style></defs><title>tgf-3-small-stacked-lockup-glass</title><g id="Content"><path class="cls-1" d="M83.41,85.21H1.79A1.79,1.79,0,0,1,0,83.42V1.79A1.79,1.79,0,0,1,1.79,0H83.41a1.8,1.8,0,0,1,1.8,1.79V83.42A1.8,1.8,0,0,1,83.41,85.21ZM3.59,81.62h78v-78h-78Z"/><path class="cls-1" d="M60.59,6.39h16.3a1.89,1.89,0,0,1,1.89,1.89V33.4a1.21,1.21,0,0,1-2.35.42c-4.27-11.38-9-17.77-16.69-25.34A1.22,1.22,0,0,1,60.59,6.39Z"/><path class="cls-1" d="M19.29,60a8.22,8.22,0,0,1-.6,3.5,5.4,5.4,0,0,1-5.24,3.23,5.77,5.77,0,0,1-6.08-6,5.85,5.85,0,0,1,6.18-6.12,5.24,5.24,0,0,1,5.13,3.21l-2.82,1.16a2.51,2.51,0,0,0-2.44-1.81c-1.7,0-3,1.52-3,3.57a4.14,4.14,0,0,0,1,2.77,2.6,2.6,0,0,0,2,.82,2.36,2.36,0,0,0,1.93-.84,2.24,2.24,0,0,0,.41-1.14H13.42V60Zm14.62-5.07H30.68l-3.4,8.88H22.76V54.93h-3V66.32h9.64l.78-2h4.09l.73,2H38.2ZM31,62.09l1.25-3.64,1.21,3.64Zm13.81-4.21a3,3,0,0,0-1.94-.76c-.72,0-1.27.42-1.27,1a.75.75,0,0,0,.27.56c.33.27.45.32,1.78.72,2,.58,2.8,1.5,2.8,3.19a3.72,3.72,0,0,1-1.16,3A5,5,0,0,1,42,66.61a7,7,0,0,1-3.94-1.28l1.26-2.39A4,4,0,0,0,42,64.1c.87,0,1.43-.44,1.43-1.11s-.39-.9-1.78-1.31a5.66,5.66,0,0,1-2.16-.93,2.74,2.74,0,0,1-.91-2.25,3.66,3.66,0,0,1,3.88-3.84,7.86,7.86,0,0,1,3.6.92Zm8.41,0a3,3,0,0,0-1.95-.76c-.72,0-1.26.42-1.26,1a.75.75,0,0,0,.27.56c.32.27.44.32,1.78.72,2,.58,2.8,1.5,2.8,3.19a3.75,3.75,0,0,1-1.16,3,5,5,0,0,1-3.3,1.07,7,7,0,0,1-3.95-1.28l1.27-2.39a3.93,3.93,0,0,0,2.61,1.16c.87,0,1.44-.44,1.44-1.11s-.4-.9-1.78-1.31a5.65,5.65,0,0,1-2.17-.93A2.74,2.74,0,0,1,47,58.5a3.67,3.67,0,0,1,3.88-3.84,7.9,7.9,0,0,1,3.61.92ZM17,47.5a2.15,2.15,0,0,0-.57.48,12.68,12.68,0,0,0-2.68,4.29s0,0,0,.08c-.14.54-.32.59-.79.21a1.36,1.36,0,0,1-.43-1.67c.36-1,.76-1.9,1.17-2.84s.9-2,1.35-3a.72.72,0,0,0,.08-.26h0c-.38.08-.8.14-1.15.24-.09,0-.17.17-.22.27-.41,1-1,2-1.46,3-.61,1.51-.83,2.28-1.45,3.79l-.24.54c-.19.49-.47.55-.87.21a1.13,1.13,0,0,1-.32-1.29c.44-1.34.76-1.9,1.26-3.22.38-1,.82-1.93,1.22-2.9,0-.1.06-.2.11-.36h0c-.5.06-.94.12-1.39.16-1.38.12-1.38.23-2.76.34-.39,0-.49-.1-.38-.47A1.55,1.55,0,0,1,9,43.9c1.77-.11,2.15-.19,3.92-.31,1-.06,1.49-.1,2.47-.22h.06a3.16,3.16,0,0,0,.17-.85c0-.24,1.23.11,1.52.52a.43.43,0,0,0,.36.15c.46,0,.92,0,1.37,0,.16,0,.4.07.44.17s0,.33-.12.47a1.61,1.61,0,0,1-1.78.82c-.12,0-.21-.05-.39.21-.6,1-1.15,2.05-1.76,3.06-.13.21,0,.16.13,0a8.84,8.84,0,0,1,.6-.77,5,5,0,0,1,1.85-1.49c.32-.13.64-.24.94,0a.84.84,0,0,1,.23.95c-.25.71-1.73,4.2-1.73,4.39s.19.07.24,0a7.39,7.39,0,0,0,1.14-1.16c.55-.76,1.05-1.37,1.59-2.13,1.55-2.38,2.86-2.29,3.29-2.16a1.23,1.23,0,0,1,.87,1.57,2.69,2.69,0,0,1-1.26,1.67,5.49,5.49,0,0,1-2.1.8c-.14,0-1.12,1-.38,1.28.47.17,1.6-.76,2-1.14a.56.56,0,0,1,1,.14,2.86,2.86,0,0,1-.43.76,4.79,4.79,0,0,1-2.45,1.77,1.57,1.57,0,0,1-1.61-.61c-.18-.33-.11-.9-.34-.59a5.16,5.16,0,0,1-.66.77,2.49,2.49,0,0,1-2.17.42c-.69-.14-.49-.91-.18-1.77a19.82,19.82,0,0,1,1.35-3C17.15,47.46,17.14,47.38,17,47.5Zm5.9-.55c-.57.16-1.67,1.25-1.66,1.65h0c1-.16,1.81-1,1.66-1.65C22.88,47,22.87,46.94,22.87,47ZM10.73,70v1.89H14v2.49H10.73v4.45H7.79V67.45h6.49V70Zm13.69,8.83H20.75L18,74.44v4.34H15V67.45h4.57a3.51,3.51,0,0,1,2.78,1,3.66,3.66,0,0,1,1,2.49,3.35,3.35,0,0,1-1,2.52,3.07,3.07,0,0,1-1.44.68Zm-5.93-6.25a2.15,2.15,0,0,0,1.26-.3,1.46,1.46,0,0,0,.56-1.11,1.49,1.49,0,0,0-.56-1.1,2.22,2.22,0,0,0-1.26-.31H18v2.82ZM34.64,69a6.05,6.05,0,0,1-.5,8.74A6.25,6.25,0,0,1,30,79.19,6,6,0,0,1,23.73,73a5.93,5.93,0,0,1,2.13-4.5A6.36,6.36,0,0,1,30,67.11,6.09,6.09,0,0,1,34.64,69Zm-7.83,4.09A3.19,3.19,0,1,0,30,70,3.19,3.19,0,0,0,26.81,73.11Zm10-5.66h2.94l5.42,6.93V67.45h2.94V78.78H45.18l-5.42-6.93v6.93H36.82Zm23.6,11.33H57.48V67.45h2.94Zm4-8.83v1.89h3.31v2.49H64.38v2h3.5v2.49H61.44V67.45h6.44V70Zm13.69,8.83H74.41L71.6,74.44v4.34H68.66V67.45h4.57a3.52,3.52,0,0,1,2.79,1A3.66,3.66,0,0,1,77,71a3.35,3.35,0,0,1-1,2.52,3.07,3.07,0,0,1-1.44.68Zm-5.92-6.25a2.11,2.11,0,0,0,1.25-.3A1.43,1.43,0,0,0,74,71.12,1.45,1.45,0,0,0,73.4,70a2.18,2.18,0,0,0-1.25-.31H71.6v2.82ZM54.33,78.78H51.39V70H49v-2.5h7.78V70H54.33Z"/></g></svg>