<svg xmlns="http://www.w3.org/2000/svg" viewBox="0 0 135 85"><title>tgf-2-brand-mark-medium-dark</title><g id="Content"><path d="M133.5,0,2,.13A1.59,1.59,0,0,0,1.4.25,2,2,0,0,0,0,2V83a2.18,2.18,0,0,0,2,2H133.5c1,0,1.5-1,1.5-2V2C135,1,134.48,0,133.5,0Zm-83,46.5h-4V38h4Zm0-12H45a2.18,2.18,0,0,0-2,2V48a1.84,1.84,0,0,0,2,2h5.5V81H4V3.5H50.5Zm81,46.5H54V3.5h77.5ZM118,7.5c-.43-.43-.25-1,.36-1h9.14a1,1,0,0,1,1,1v14c0,.75-1.24.71-1.5,0A33.82,33.82,0,0,0,118,7.5ZM6.5,77.5v-14c0-.75,1.24-1.21,1.5-.5a33.82,33.82,0,0,0,9,14c.43.42.11,1.5-.5,1.5h-9A1,1,0,0,1,6.5,77.5ZM72.94,53.88H69.85V65.36H78.9l.67-2h4l.66,2h3.09l-4-11.48H80l-3.3,9,0,0H72.94Zm8.7,3.76,1.24,3.52H80.45ZM72.4,73.49a3.32,3.32,0,0,0,1-2.47,3.59,3.59,0,0,0-1-2.45,3.67,3.67,0,0,0-2.83-1H65.22v11h2.87l0-4.17,2.61,4.17h3.75L71,74.15A3,3,0,0,0,72.4,73.49Zm-2.51-1.22a1.73,1.73,0,0,1-1.14.38h-.66V69.78h.66a1.87,1.87,0,0,1,1.14.32,1.35,1.35,0,0,1,0,2.17Zm-12-4.7h6.4V70H60.58v2h3.31v2.43H60.58v4.2H57.93Zm2.65-7.73a4,4,0,0,0,.9,2.73,2.56,2.56,0,0,0,2,.8,2.35,2.35,0,0,0,1.91-.82,2.56,2.56,0,0,0,.52-1.16H63.45V59.18h5.74a8,8,0,0,1-.63,3.42,5.31,5.31,0,0,1-5.15,3.17,5.62,5.62,0,0,1-5.92-5.93c0-3.57,2-6.18,5.74-6.18A5.41,5.41,0,0,1,68.54,57l-2.77,1.14a2.46,2.46,0,0,0-2.39-1.77C61.72,56.35,60.58,57.83,60.58,59.84ZM92,62.1c0-.6-.38-.89-1.74-1.29a5.6,5.6,0,0,1-2.13-.91,2.79,2.79,0,0,1-.83-2.27,3.55,3.55,0,0,1,3.76-3.75,7.81,7.81,0,0,1,3.53.88l-1.11,2.43a3.31,3.31,0,0,0-2-.88,1.11,1.11,0,0,0-1.23,1,.79.79,0,0,0,.27.56c.32.26.44.32,1.75.7,1.94.57,2.74,1.39,2.74,3a4,4,0,0,1-1.13,3,4.79,4.79,0,0,1-3.51,1.2A5,5,0,0,1,88,65.14l-.66-1.77L88,62.05a4,4,0,0,0,2.63,1.14C91.44,63.19,92,62.75,92,62.1Zm-12,5a6.5,6.5,0,0,0-4.12,1.52,5.86,5.86,0,0,0-2.06,4.44,6.18,6.18,0,0,0,12.36,0,5.7,5.7,0,0,0-1.68-4A6,6,0,0,0,80,67.13Zm0,9.27a3.26,3.26,0,0,1-3.19-3.26A3.22,3.22,0,0,1,80,70a3.13,3.13,0,0,1,3.08,3.17A3.17,3.17,0,0,1,80,76.4Zm37.53,2.21h-6.18v-11h6.4V70h-3.53v2h3.31v2.43h-3.31v1.77h3.31ZM57.84,46.16c1.29-.1,1.29-.21,2.58-.32.42,0,.83-.09,1.3-.14,0,0,0,0,0,0a2.93,2.93,0,0,1-.09.33c-.38.91-.79,1.8-1.14,2.72-.48,1.23-.77,1.76-1.19,3a1.07,1.07,0,0,0,.3,1.2c.38.33.64.27.82-.19.07-.17.15-.33.22-.51.58-1.41.78-2.13,1.36-3.54.39-.93,1-1.84,1.37-2.77a.46.46,0,0,1,.21-.26c.32-.09.71-.15,1.07-.22a0,0,0,0,1,0,0,.63.63,0,0,1-.07.24c-.42.94-.86,1.87-1.27,2.81s-.76,1.76-1.09,2.66a1.26,1.26,0,0,0,.4,1.56c.43.36.61.31.74-.2a.25.25,0,0,1,0-.07,11.92,11.92,0,0,1,2.5-4,2.24,2.24,0,0,1,.54-.44c.16-.11.17,0,.12.09a19.78,19.78,0,0,0-1.27,2.81c-.28.8-.47,1.52.17,1.65a2.28,2.28,0,0,0,2-.39,4.15,4.15,0,0,0,.62-.72c.22-.29.15.24.32.55a1.48,1.48,0,0,0,1.51.58,4.56,4.56,0,0,0,2.29-1.66,2.55,2.55,0,0,0,.4-.72.53.53,0,0,0-.93-.12c-.34.35-1.4,1.22-1.84,1.06-.69-.25.23-1.17.36-1.19a5.11,5.11,0,0,0,2-.76,2.49,2.49,0,0,0,1.18-1.56,1.15,1.15,0,0,0-.81-1.47c-.4-.12-1.63-.2-3.08,2-.5.71-1,1.29-1.48,2a6.8,6.8,0,0,1-1.08,1.08s-.22.08-.22-.05,1.39-3.44,1.62-4.1a.78.78,0,0,0-.22-.89c-.28-.26-.58-.15-.87,0a4.71,4.71,0,0,0-1.74,1.39c-.2.24-.39.48-.56.73s-.24.23-.12,0c.57-.94,1.09-1.91,1.65-2.86.16-.24.25-.21.36-.19a1.51,1.51,0,0,0,1.66-.78c.08-.13.17-.33.12-.44s-.27-.15-.41-.15c-.43,0-.85,0-1.28.05a.45.45,0,0,1-.34-.15c-.27-.38-1.43-.71-1.43-.49a2.92,2.92,0,0,1-.15.8h-.06c-.92.11-1.39.15-2.31.21-1.65.11-2,.18-3.67.28a1.46,1.46,0,0,0-1.45,1.07C57.38,46.07,57.47,46.19,57.84,46.16ZM72,47.51h0c.14.6-.66,1.39-1.56,1.55a0,0,0,0,1,0,0C70.39,48.68,71.42,47.66,72,47.51Zm53.68,26a3.07,3.07,0,0,0,1-2.39,3.74,3.74,0,0,0-.89-2.53,3.24,3.24,0,0,0-2.64-1h-4.64v11h3.1v-4.2l2.64,4.2h3.54l-3.54-4.42A3.31,3.31,0,0,0,125.63,73.49Zm-2.5-1.22a1.83,1.83,0,0,1-1.17.38h-.67V69.78H122a2,2,0,0,1,1.17.32,1.35,1.35,0,0,1,0,2.17Zm-12.87,6.34h-2.87v-11h2.87ZM99,67.57h7.5V70h-2.21v8.61h-2.87V70H99Zm-3.76,0h2.87v11H95.24L89.94,72v6.63H87.07v-11h2.87l5.3,6.84Zm.64-7.67A2.8,2.8,0,0,1,95,57.63a3.55,3.55,0,0,1,3.76-3.75,7.78,7.78,0,0,1,3.53.88l-1.1,2.43a3.37,3.37,0,0,0-2-.88,1.07,1.07,0,0,0-1.19,1,.75.75,0,0,0,.27.56c.31.26.43.32,1.74.7,1.94.57,2.71,1.39,2.71,3a3.8,3.8,0,0,1-1.1,3,5.63,5.63,0,0,1-3.54,1.2A4.77,4.77,0,0,1,95,64.56a3.32,3.32,0,0,0,.94-2.4,3.41,3.41,0,0,0,2.39,1c.85,0,1.4-.44,1.4-1.09s-.38-.89-1.74-1.29A5.6,5.6,0,0,1,95.88,59.9Z"/></g></svg>