<svg xmlns="http://www.w3.org/2000/svg" viewBox="0 0 84.56 85"><title>tgf-3-brand-mark-small-dark</title><g id="Content"><path d="M83.06,0,52.54,0a1.73,1.73,0,0,0-.32,0H2a2,2,0,0,0-.54.08A2,2,0,0,0,0,1.87V83a2.18,2.18,0,0,0,2,2H83.06c1,0,1.5-1,1.5-2V2C84.56,1,84,0,83.06,0Zm-2,81H4V3.5H81.06ZM59,8.32c-.79-.78-.46-1.82.65-1.82h16.6a1.75,1.75,0,0,1,1.82,1.82V33.73c0,1.37-2.25,1.29-2.73,0C71,22.21,66.82,16,59,8.32ZM29.56,67.13a6.48,6.48,0,0,0-4.11,1.52,5.87,5.87,0,0,0-2.07,4.44,6.09,6.09,0,0,0,6.18,6.18,6,6,0,0,0,4-1.57,6.09,6.09,0,0,0,2.17-4.61,5.7,5.7,0,0,0-1.68-4A6,6,0,0,0,29.56,67.13Zm0,9.27a3.2,3.2,0,0,1,0-6.4,3.13,3.13,0,0,1,3.09,3.17A3.17,3.17,0,0,1,29.56,76.4ZM7.49,67.57h6.4V70H10.14v2h3.31v2.43H10.14v4.2H7.49Zm2.65-7.73a4,4,0,0,0,.9,2.73,2.53,2.53,0,0,0,2,.8,2.32,2.32,0,0,0,1.9-.82,2.36,2.36,0,0,0,.52-1.16H13V59.18h5.74a8,8,0,0,1-.64,3.42A5.3,5.3,0,0,1,13,65.77,5.63,5.63,0,0,1,7,59.84c0-3.57,2-6.18,5.74-6.18A5.43,5.43,0,0,1,18.1,57l-2.77,1.14a2.46,2.46,0,0,0-2.4-1.77C11.27,56.35,10.14,57.83,10.14,59.84ZM44.8,67.57h2.87v11H44.8L39.5,72v6.63H36.63v-11H39.5l5.3,6.84ZM22,73.49A3.32,3.32,0,0,0,23,71,3.59,3.59,0,0,0,22,68.57a3.67,3.67,0,0,0-2.83-1H14.77v11h2.87l0-4.17,2.61,4.17H24l-3.51-4.46A3,3,0,0,0,22,73.49Zm-2.5-1.22a1.79,1.79,0,0,1-1.15.38h-.66V69.78h.66a1.92,1.92,0,0,1,1.15.32,1.35,1.35,0,0,1,0,2.17Zm26-12.37a2.8,2.8,0,0,1-.86-2.27,3.54,3.54,0,0,1,3.75-3.75,7.75,7.75,0,0,1,3.53.88l-1.1,2.43a3.34,3.34,0,0,0-2-.88,1.08,1.08,0,0,0-1.19,1,.75.75,0,0,0,.27.56c.32.26.44.32,1.75.7,1.94.57,2.71,1.39,2.71,3a3.84,3.84,0,0,1-1.1,3,5.65,5.65,0,0,1-3.54,1.2,4.75,4.75,0,0,1-3.09-1.24,3.27,3.27,0,0,0,.93-2.4,3.45,3.45,0,0,0,2.39,1c.86,0,1.41-.44,1.41-1.09s-.39-.89-1.74-1.29A5.6,5.6,0,0,1,45.44,59.9Zm-22.94-6H19.41V65.36h9.05l.66-2h4l.67,2h3.09l-4-11.48H29.56l-3.29,9,0,0H22.5Zm8.69,3.76,1.24,3.52H30ZM7.39,46.16c1.3-.1,1.29-.21,2.59-.32.41,0,.83-.09,1.29-.14h0a2.71,2.71,0,0,1-.1.33c-.38.91-.79,1.8-1.14,2.72-.47,1.23-.77,1.76-1.18,3a1.05,1.05,0,0,0,.3,1.2c.37.33.64.27.82-.19l.22-.51c.58-1.41.78-2.13,1.36-3.54.38-.93,1-1.84,1.37-2.77,0-.1.11-.23.2-.26.33-.09.72-.15,1.08-.22h0a.63.63,0,0,1-.07.24c-.42.94-.85,1.87-1.26,2.81s-.76,1.76-1.1,2.66a1.26,1.26,0,0,0,.41,1.56c.43.36.6.31.73-.2l0-.07a11.77,11.77,0,0,1,2.5-4A2,2,0,0,1,16,48c.16-.11.17,0,.12.09a18.41,18.41,0,0,0-1.26,2.81c-.29.8-.48,1.52.17,1.65a2.29,2.29,0,0,0,2-.39,4.15,4.15,0,0,0,.62-.72c.21-.29.15.24.32.55a1.46,1.46,0,0,0,1.5.58,4.58,4.58,0,0,0,2.3-1.66,2.82,2.82,0,0,0,.4-.72.53.53,0,0,0-.93-.12c-.35.35-1.41,1.22-1.85,1.06-.69-.25.23-1.17.36-1.19a5.15,5.15,0,0,0,2-.76,2.49,2.49,0,0,0,1.18-1.56,1.16,1.16,0,0,0-.81-1.47c-.41-.12-1.64-.2-3.08,2-.51.71-1,1.29-1.49,2a6.4,6.4,0,0,1-1.07,1.08s-.23.08-.23-.05,1.39-3.44,1.62-4.1a.77.77,0,0,0-.21-.89c-.28-.26-.58-.15-.88,0A4.6,4.6,0,0,0,15,47.6c-.2.24-.39.48-.56.73s-.24.23-.12,0c.57-.94,1.08-1.91,1.64-2.86.17-.24.25-.21.37-.19A1.52,1.52,0,0,0,18,44.53a.7.7,0,0,0,.12-.44c-.05-.09-.27-.15-.41-.15-.43,0-.86,0-1.29.05a.43.43,0,0,1-.33-.15c-.27-.38-1.43-.71-1.43-.49a2.88,2.88,0,0,1-.16.8h0c-.92.11-1.4.15-2.32.21-1.65.11-2,.18-3.66.28A1.45,1.45,0,0,0,7,45.72C6.93,46.07,7,46.19,7.39,46.16Zm14.12,1.35h0c.15.6-.65,1.39-1.55,1.55,0,0,0,0,0,0C19.94,48.68,21,47.66,21.51,47.51Zm20,14.59c0-.6-.39-.89-1.75-1.29a5.68,5.68,0,0,1-2.13-.91,2.82,2.82,0,0,1-.82-2.27,3.54,3.54,0,0,1,3.75-3.75,7.75,7.75,0,0,1,3.53.88L43,57.19a3.34,3.34,0,0,0-2-.88,1.1,1.1,0,0,0-1.22,1,.75.75,0,0,0,.27.56c.32.26.43.32,1.74.7,2,.57,2.75,1.39,2.75,3a3.94,3.94,0,0,1-1.14,3,4.76,4.76,0,0,1-3.5,1.2,4.94,4.94,0,0,1-2.43-.66l-.66-1.77.66-1.32a4,4,0,0,0,2.63,1.14C41,63.19,41.55,62.75,41.55,62.1Zm7,5.47h7.51V70H53.85v8.61H51V70H48.55Zm26.64,5.92a3.1,3.1,0,0,0,1-2.39,3.74,3.74,0,0,0-.89-2.53,3.24,3.24,0,0,0-2.64-1H68v11h3.09v-4.2l2.65,4.2h3.53l-3.53-4.42A3.31,3.31,0,0,0,75.19,73.49Zm-2.5-1.22a1.88,1.88,0,0,1-1.18.38h-.66V69.78h.66a2,2,0,0,1,1.18.32,1.35,1.35,0,0,1,0,2.17ZM59.81,78.61H56.94v-11h2.87Zm1.11-11h6.4V70H63.79v2H67.1v2.43H63.79v1.77H67.1v2.43H60.92Z"/></g></svg>