<svg xmlns="http://www.w3.org/2000/svg" viewBox="0 0 300 85.21"><defs><style>.cls-1{fill:#fff;}</style></defs><title>tgf-1-horizontal-stacked-lockup-light</title><g id="Content"><path class="cls-1" d="M168.46,41.66c-.08,3.75-.43,5.81-1.34,7.84-2.1,4.66-6.27,7.22-11.74,7.22-8.06,0-13.61-5.5-13.61-13.53s5.62-13.68,13.84-13.68c5.43,0,9.06,2.29,11.47,7.18l-6.31,2.6c-1.14-2.75-2.9-4-5.46-4-3.79,0-6.62,3.4-6.62,8a9.13,9.13,0,0,0,2.3,6.19,5.78,5.78,0,0,0,4.51,1.84,5.28,5.28,0,0,0,4.32-1.88,5.14,5.14,0,0,0,.91-2.56h-5.42V41.66Zm32.72-11.35H194l-7.63,19.88h-10.1V30.31H169.6v25.5h21.56l1.76-4.44h9.14l1.64,4.44h7.07Zm-6.43,16,2.8-8.14,2.71,8.14Zm30.91-9.41a6.77,6.77,0,0,0-4.36-1.72c-1.61,0-2.83,1-2.83,2.22a1.66,1.66,0,0,0,.61,1.26c.73.61,1,.73,4,1.61,4.43,1.3,6.27,3.36,6.27,7.15,0,2.9-.88,5.12-2.6,6.61a11.27,11.27,0,0,1-7.38,2.41,15.68,15.68,0,0,1-8.83-2.87l2.83-5.35c2.06,1.79,3.9,2.6,5.85,2.6s3.21-1,3.21-2.49-.88-2-4-2.94c-2.83-.84-3.93-1.3-4.85-2.06a6.2,6.2,0,0,1-2-5.05c0-5.12,3.52-8.6,8.68-8.6a17.74,17.74,0,0,1,8.06,2.06Zm18.8,0a6.74,6.74,0,0,0-4.35-1.72c-1.61,0-2.83,1-2.83,2.22a1.66,1.66,0,0,0,.61,1.26c.73.61,1,.73,4,1.61,4.44,1.3,6.27,3.36,6.27,7.15,0,2.9-.88,5.12-2.6,6.61a11.22,11.22,0,0,1-7.37,2.41,15.68,15.68,0,0,1-8.83-2.87l2.83-5.35c2.06,1.79,3.89,2.6,5.84,2.6s3.22-1,3.22-2.49-.88-2-4-2.94c-2.83-.84-3.94-1.3-4.85-2.06a6.2,6.2,0,0,1-2-5.05c0-5.12,3.52-8.6,8.68-8.6a17.77,17.77,0,0,1,8.06,2.06Zm-81.2-23.23A5.39,5.39,0,0,0,162,14.75a28.17,28.17,0,0,0-6,9.61l-.06.18c-.31,1.21-.72,1.32-1.76.47a3,3,0,0,1-1-3.73c.79-2.15,1.7-4.25,2.61-6.35,1-2.26,2-4.48,3-6.72a1.55,1.55,0,0,0,.17-.59,0,0,0,0,0,0,0c-.86.17-1.79.32-2.57.54-.2,0-.39.37-.49.61-.91,2.22-2.35,4.4-3.26,6.62-1.39,3.37-1.87,5.1-3.27,8.47-.17.41-.35.81-.52,1.22-.43,1.08-1.06,1.23-2,.45a2.56,2.56,0,0,1-.73-2.88c1-3,1.71-4.25,2.83-7.19.85-2.2,1.83-4.34,2.74-6.51.09-.21.13-.45.23-.79l0,0c-1.11.12-2.1.26-3.1.34-3.09.27-3.08.53-6.17.77-.89.08-1.11-.22-.86-1.06a3.45,3.45,0,0,1,3.47-2.54c3.95-.26,4.81-.43,8.76-.69,2.21-.14,3.34-.24,5.54-.49,0,0,.08,0,.13,0a6.77,6.77,0,0,0,.37-1.9c0-.52,2.77.25,3.41,1.18a1.12,1.12,0,0,0,.82.34c1,0,2-.12,3.06-.12.34,0,.88.14,1,.37s-.1.73-.28,1a3.61,3.61,0,0,1-4,1.85c-.27,0-.48-.11-.87.47-1.35,2.26-2.58,4.58-3.94,6.83-.29.48,0,.38.29-.07A17.35,17.35,0,0,1,161,12.68a11.15,11.15,0,0,1,4.14-3.35c.71-.28,1.42-.53,2.1.08a1.86,1.86,0,0,1,.51,2.13c-.55,1.58-3.87,9.4-3.87,9.81s.44.17.54.12A16.05,16.05,0,0,0,167,18.88c1.22-1.71,2.34-3.07,3.56-4.78C174,8.78,176.91,9,177.88,9.28a2.76,2.76,0,0,1,1.94,3.51A6,6,0,0,1,177,16.52a12.05,12.05,0,0,1-4.7,1.81c-.32,0-2.51,2.26-.86,2.85,1.05.38,3.58-1.71,4.41-2.54a1.26,1.26,0,0,1,2.22.3,6.67,6.67,0,0,1-.95,1.71,10.93,10.93,0,0,1-5.49,4,3.47,3.47,0,0,1-3.6-1.37c-.41-.75-.25-2-.76-1.31a11.47,11.47,0,0,1-1.49,1.72,5.52,5.52,0,0,1-4.85.93c-1.54-.32-1.09-2-.4-3.95a44.56,44.56,0,0,1,3-6.72C163.66,13.6,163.64,13.43,163.26,13.69Zm13.2-1.25c-1.27.37-3.73,2.82-3.71,3.7a0,0,0,0,0,0,0c2.15-.38,4.06-2.28,3.71-3.7A0,0,0,0,0,176.46,12.44ZM149.29,63.93v4.21h7.22v5.59h-7.22v10h-6.57V58.34h14.52v5.59Zm30.64,19.76h-8.21L165.45,74v9.73h-6.58V58.34H169.1c2.85,0,4.75.68,6.23,2.24a8.23,8.23,0,0,1,2.17,5.59,7.52,7.52,0,0,1-2.32,5.62A7,7,0,0,1,172,73.31Zm-13.27-14a4.71,4.71,0,0,0,2.82-.68,3.23,3.23,0,0,0,1.25-2.47,3.29,3.29,0,0,0-1.25-2.47,5,5,0,0,0-2.82-.69h-1.21V69.7Zm36.14-7.86a13.56,13.56,0,0,1-1.11,19.57,14.09,14.09,0,0,1-9.38,3.19c-8,0-13.92-5.85-13.92-13.76a13.34,13.34,0,0,1,4.75-10.07,14.32,14.32,0,0,1,9.28-3.19A13.62,13.62,0,0,1,202.8,61.84ZM185.27,71a7.15,7.15,0,1,0,7.15-7A7.14,7.14,0,0,0,185.27,71Zm22.41-12.66h6.58l12.13,15.51V58.34H233V83.69h-6.57L214.26,68.18V83.69h-6.58Zm52.81,25.35h-6.58V58.34h6.58Zm8.87-19.76v4.21h7.41v5.59h-7.41V78.1h7.83v5.59H262.78V58.34h14.41v5.59ZM300,83.69h-8.21L285.52,74v9.73h-6.58V58.34h10.23c2.85,0,4.75.68,6.23,2.24a8.23,8.23,0,0,1,2.17,5.59,7.52,7.52,0,0,1-2.32,5.62A7,7,0,0,1,292,73.31Zm-13.27-14a4.71,4.71,0,0,0,2.82-.68,3.23,3.23,0,0,0,1.25-2.47,3.29,3.29,0,0,0-1.25-2.47,5,5,0,0,0-2.82-.69h-1.21V69.7Zm-39.86,14h-6.58V63.93h-5.36V58.34h17.41v5.59h-5.47Z"/><path class="cls-1" d="M133.86,85.21H1.79A1.79,1.79,0,0,1,0,83.42V1.79A1.79,1.79,0,0,1,1.79,0H133.86a1.79,1.79,0,0,1,1.79,1.79V83.42A1.79,1.79,0,0,1,133.86,85.21ZM3.59,81.62H132.07v-78H3.59Z"/><path class="cls-1" d="M52.24,85.21H1.79A1.79,1.79,0,0,1,0,83.42V1.79A1.79,1.79,0,0,1,1.79,0H52.24A1.8,1.8,0,0,1,54,1.79V83.42A1.8,1.8,0,0,1,52.24,85.21ZM3.59,81.62H50.45v-78H3.59Z"/><path class="cls-1" d="M52.24,50.35H44.88a1.79,1.79,0,0,1-1.79-1.79V36.65a1.79,1.79,0,0,1,1.79-1.79h7.36A1.8,1.8,0,0,1,54,36.65V48.56A1.8,1.8,0,0,1,52.24,50.35Zm-5.57-3.58h3.78V38.45H46.67Z"/><path class="cls-1" d="M119,6.42h9.15a1.05,1.05,0,0,1,1.06,1.06V21.57a.68.68,0,0,1-1.32.24,34.86,34.86,0,0,0-9.36-14.22A.68.68,0,0,1,119,6.42Z"/><path class="cls-1" d="M16.62,78.79H7.47a1.05,1.05,0,0,1-1.06-1.06V63.64a.68.68,0,0,1,1.32-.24A35,35,0,0,0,17.1,77.62.68.68,0,0,1,16.62,78.79Z"/></g></svg>