<svg xmlns="http://www.w3.org/2000/svg" viewBox="0 0 165.94 85"><title>tgf-4-word-mark-dark</title><g id="Content"><path d="M118,57.36h6.78V83.44H118ZM.09,5.76A3.44,3.44,0,0,1,3.53,3.24c3.9-.24,4.75-.42,8.65-.67,2.18-.14,3.3-.24,5.46-.49.05,0,.09,0,.14,0A6.61,6.61,0,0,0,18.15.16c0-.51,2.73.25,3.37,1.17a1.06,1.06,0,0,0,.8.34c1,0,2-.13,3-.12.34,0,.87.14,1,.37s-.1.72-.27,1a3.57,3.57,0,0,1-3.93,1.83c-.27,0-.47-.11-.86.46C19.92,7.47,18.7,9.77,17.37,12c-.29.48,0,.37.28-.07A18.11,18.11,0,0,1,19,10.21a11.11,11.11,0,0,1,4.09-3.3c.7-.29,1.41-.53,2.08.08a1.83,1.83,0,0,1,.51,2.09c-.55,1.57-3.83,9.29-3.83,9.7s.43.17.53.12a16.09,16.09,0,0,0,2.54-2.56c1.2-1.69,2.31-3,3.51-4.73,3.41-5.25,6.31-5,7.27-4.75a2.73,2.73,0,0,1,1.92,3.46A6,6,0,0,1,34.8,14a12.11,12.11,0,0,1-4.64,1.78c-.32.05-2.49,2.23-.85,2.82,1,.37,3.53-1.69,4.36-2.51a1.24,1.24,0,0,1,2.18.3,6.65,6.65,0,0,1-.93,1.69A10.82,10.82,0,0,1,29.5,22a3.45,3.45,0,0,1-3.56-1.35c-.41-.74-.25-2-.75-1.3a12.32,12.32,0,0,1-1.47,1.7,5.51,5.51,0,0,1-4.8.92c-1.52-.32-1.07-2-.4-3.9a45.1,45.1,0,0,1,3-6.64c.11-.31.09-.48-.28-.22a5.3,5.3,0,0,0-1.27,1,28,28,0,0,0-5.91,9.49,1.21,1.21,0,0,0-.05.18c-.31,1.2-.72,1.3-1.74.47a3,3,0,0,1-.95-3.69c.78-2.12,1.68-4.2,2.58-6.28s2-4.42,3-6.64a1.43,1.43,0,0,0,.17-.58l0,0c-.85.17-1.77.32-2.54.53-.2.06-.39.37-.48.61-.91,2.19-2.33,4.34-3.23,6.54-1.37,3.33-1.84,5-3.22,8.37-.17.4-.36.8-.52,1.21-.43,1.06-1,1.21-1.93.44A2.52,2.52,0,0,1,4.4,20c1-2.95,1.68-4.2,2.79-7.1C8,10.77,9,8.65,9.89,6.51a8,8,0,0,0,.23-.78s0,0,0,0C9,5.83,8,6,7,6.05c-3,.26-3,.51-6.1.76C.06,6.88-.15,6.59.09,5.76ZM30.6,13.63a0,0,0,0,0,0,0c2.12-.37,4-2.25,3.67-3.66h0C33,10.34,30.58,12.76,30.6,13.63Zm6,32.78h8.86l0-.06L53.3,25h7.82l9.39,27.12h-7.3l-1.57-4.7H52.26l-1.56,4.7H29.32V25h7.3Zm17.72-4.17h5.74l-2.93-8.33ZM78.28,47a9.44,9.44,0,0,1-6.21-2.69l-1.56,3.12,1.56,4.18a11.81,11.81,0,0,0,5.74,1.56c3,0,5.74-.52,8.27-2.84a9.32,9.32,0,0,0,2.68-7.07c0-3.92-1.88-5.84-6.48-7.19-3.09-.91-3.37-1-4.12-1.66a1.77,1.77,0,0,1-.63-1.31c0-1.31,1.22-2.35,2.89-2.35a7.9,7.9,0,0,1,4.69,2.08l2.61-5.73A18.18,18.18,0,0,0,79.37,25c-5.34,0-8.86,3.56-8.86,8.87,0,2.33.56,4.21,1.95,5.36,1,.79,2.1,1.26,5,2.14,3.21,1,4.12,1.62,4.12,3.05S80.3,47,78.28,47Zm87.66,36.42H157.6l-6.26-9.91v9.91H144V57.36h11c3,0,4.7.75,6.24,2.36a9,9,0,0,1,2.11,6,7.28,7.28,0,0,1-2.27,5.63A7.82,7.82,0,0,1,157.6,73Zm-9.48-17.53a3.39,3.39,0,0,0-1.3-2.56,4.63,4.63,0,0,0-2.78-.77h-1.56v6.78h1.56a4.41,4.41,0,0,0,2.78-.89A3.36,3.36,0,0,0,156.46,65.91ZM1.16,83.44H7.41V73.53h7.83V67.79H7.41V63.1h8.87V57.36H1.16ZM14.1,53.12c5.66,0,10-2.65,12.16-7.49.95-2.1,1.41-4.2,1.49-8.08H14.19v5.21h5.74a5.76,5.76,0,0,1-1.24,2.76,5.53,5.53,0,0,1-4.5,1.93,6,6,0,0,1-4.65-1.9,9.39,9.39,0,0,1-2.13-6.44c0-4.75,2.69-8.25,6.61-8.25,2.65,0,4.48,1.35,5.66,4.2l6.54-2.69c-2.5-5.07-6.29-7.86-12.55-7.86C4.81,24.51.11,30.67.11,39.11S5.74,53.12,14.1,53.12ZM107,43.28c0-3.92-1.81-5.84-6.4-7.19-3.09-.91-3.37-1-4.12-1.66a1.75,1.75,0,0,1-.64-1.31,2.54,2.54,0,0,1,2.82-2.35,7.9,7.9,0,0,1,4.69,2.08L106,27.12A18.18,18.18,0,0,0,97.63,25c-5.34,0-8.86,3.56-8.86,8.87,0,2.33.64,4.21,2,5.36,1,.79,2.1,1.26,5,2.14,3.21,1,4.12,1.62,4.12,3.05S98.64,47,96.62,47A8.06,8.06,0,0,1,91,44.59a7.85,7.85,0,0,1-2.22,5.67,11.3,11.3,0,0,0,7.31,2.93,13.25,13.25,0,0,0,8.35-2.84C106.21,48.81,107,46.29,107,43.28ZM89.29,73.53,76.77,57.36H70V83.44h6.78V67.79L89.29,83.44h6.78V57.36H89.29ZM98.15,63.1h5.74V83.44h6.78V63.1h5.21V57.36H98.15ZM63.94,61a13.5,13.5,0,0,1,4,9.38,14.61,14.61,0,0,1-29.21,0,13.86,13.86,0,0,1,4.88-10.48,15.32,15.32,0,0,1,9.72-3.6A14.14,14.14,0,0,1,63.94,61Zm-3.35,9.57A7.4,7.4,0,0,0,53.3,63.1a7.56,7.56,0,0,0,0,15.12A7.49,7.49,0,0,0,60.59,70.59ZM32,72.92l8.29,10.52H31.4l-6.16-9.85-.1,9.85H18.37V57.36H28.8c2.95,0,5.14.75,6.68,2.36a8.52,8.52,0,0,1,2.25,5.79,7.77,7.77,0,0,1-2.41,5.83A7.19,7.19,0,0,1,32,72.92Zm-1.27-7a3.42,3.42,0,0,0-1.29-2.56,4.42,4.42,0,0,0-2.71-.77H25.14v6.78h1.57a4.22,4.22,0,0,0,2.71-.89A3.38,3.38,0,0,0,30.71,65.91Zm96.64,17.53H142V77.7h-7.82V73.53H142V67.79h-7.82V63.1h8.35V57.36H127.35Z"/></g></svg>